<svg width="363" height="318" xmlns="http://www.w3.org/2000/svg" xmlns:xlink="http://www.w3.org/1999/xlink" xml:space="preserve" overflow="hidden"><defs><clipPath id="clip0"><rect x="3048" y="1821" width="363" height="318"/></clipPath></defs><g clip-path="url(#clip0)" transform="translate(-3048 -1821)"><path d="M3138.4 1877.33C3122.44 1877.33 3109.51 1890.27 3109.51 1906.22L3109.51 2021.78C3109.51 2037.73 3122.44 2050.67 3138.4 2050.67L3319.6 2050.67C3335.56 2050.67 3348.49 2037.73 3348.49 2021.78L3348.49 1906.22C3348.49 1890.27 3335.56 1877.33 3319.6 1877.33ZM3133.67 1821 3324.33 1821C3350.66 1821 3372 1842.34 3372 1868.67L3372 2059.33C3372 2085.66 3350.66 2107 3324.33 2107L3133.67 2107C3107.34 2107 3086 2085.66 3086 2059.33L3086 1868.67C3086 1842.34 3107.34 1821 3133.67 1821Z" fill-rule="evenodd"/><text font-family="Aptos,Aptos_MSFontService,sans-serif" font-weight="400" font-size="147" transform="matrix(1 0 0 1 3136.31 2009)">CV</text></g></svg>