<svg width="286" height="285" xmlns="http://www.w3.org/2000/svg" xmlns:xlink="http://www.w3.org/1999/xlink" xml:space="preserve" overflow="hidden"><g transform="translate(-518 -1238)"><path d="M563 1317 563 1444 760 1444 760 1317ZM667 1398.05C663.957 1400.8 659.043 1400.8 656 1398.05L571.893 1321.74C571.883 1321.73 571.884 1321.72 571.894 1321.71 571.899 1321.71 571.905 1321.7 571.912 1321.7L751.088 1321.7C751.103 1321.7 751.114 1321.71 751.114 1321.73 751.114 1321.73 751.111 1321.74 751.107 1321.74ZM629.322 1380.5 568.228 1435.93C568.218 1435.94 568.202 1435.94 568.192 1435.93 568.187 1435.93 568.184 1435.92 568.184 1435.91L568.184 1325.09C568.185 1325.07 568.196 1325.06 568.21 1325.06 568.217 1325.06 568.224 1325.06 568.228 1325.07ZM632.987 1383.83 652.334 1401.38C657.395 1405.97 665.601 1405.97 670.663 1401.38 670.664 1401.38 670.665 1401.38 670.666 1401.38L690.013 1383.83 751.107 1439.26C751.117 1439.27 751.116 1439.28 751.106 1439.29 751.101 1439.29 751.095 1439.3 751.088 1439.3L571.912 1439.3C571.898 1439.3 571.886 1439.29 571.886 1439.27 571.886 1439.27 571.889 1439.26 571.893 1439.26ZM693.678 1380.5 754.772 1325.07C754.782 1325.06 754.798 1325.06 754.808 1325.07 754.813 1325.07 754.816 1325.08 754.816 1325.09L754.816 1435.91C754.816 1435.93 754.804 1435.94 754.79 1435.94 754.783 1435.94 754.776 1435.94 754.772 1435.93Z" stroke="#FFFFFF" stroke-width="5.72917" stroke-miterlimit="8" fill="#FFFFFF" fill-rule="evenodd"/></g></svg>