<svg width="286" height="285" xmlns="http://www.w3.org/2000/svg" xmlns:xlink="http://www.w3.org/1999/xlink" xml:space="preserve" overflow="hidden"><g transform="translate(-490 -98)"><path d="M534 177 534 304 732 304 732 177ZM638.528 258.054C635.47 260.799 630.53 260.799 627.471 258.054L542.938 181.744C542.928 181.735 542.929 181.72 542.939 181.711 542.944 181.706 542.95 181.704 542.957 181.704L723.043 181.704C723.057 181.704 723.069 181.715 723.069 181.727 723.068 181.734 723.066 181.74 723.061 181.744ZM600.658 240.5 539.255 295.931C539.245 295.94 539.228 295.94 539.218 295.93 539.213 295.926 539.21 295.92 539.21 295.914L539.21 185.086C539.211 185.073 539.222 185.062 539.237 185.062 539.243 185.063 539.25 185.065 539.255 185.069ZM604.342 243.825 623.788 261.38C628.874 265.973 637.122 265.974 642.21 261.382 642.211 261.381 642.211 261.38 642.212 261.38L661.658 243.825 723.061 299.256C723.071 299.265 723.071 299.28 723.061 299.289 723.056 299.294 723.05 299.296 723.043 299.296L542.957 299.296C542.943 299.296 542.931 299.285 542.931 299.272 542.931 299.266 542.934 299.26 542.938 299.256ZM665.341 240.5 726.745 185.069C726.755 185.06 726.772 185.06 726.782 185.069 726.787 185.074 726.789 185.08 726.789 185.086L726.789 295.914C726.789 295.927 726.777 295.937 726.763 295.937 726.756 295.937 726.75 295.935 726.745 295.931Z" stroke="#000000" stroke-width="5.72917" stroke-miterlimit="8" fill="#0070C0" fill-rule="evenodd"/></g></svg>