<svg width="96" height="96" xmlns="http://www.w3.org/2000/svg" xmlns:xlink="http://www.w3.org/1999/xlink" xml:space="preserve" overflow="hidden"><g transform="translate(-118 -232)"><path d="M128 253 128 307 204 307 204 253ZM168.122 287.464C166.948 288.631 165.052 288.631 163.878 287.464L131.431 255.017C131.427 255.013 131.427 255.007 131.431 255.003 131.433 255.001 131.435 255 131.438 255L200.562 255C200.568 255 200.572 255.005 200.572 255.01 200.572 255.013 200.571 255.015 200.569 255.017ZM153.586 280 130.017 303.569C130.013 303.573 130.007 303.573 130.003 303.569 130.001 303.567 130 303.565 130 303.562L130 256.438C130 256.432 130.005 256.428 130.01 256.428 130.013 256.428 130.015 256.429 130.017 256.431ZM155 281.414 162.464 288.878C164.416 290.831 167.582 290.831 169.535 288.879 169.535 288.879 169.536 288.878 169.536 288.878L177 281.414 200.569 304.983C200.573 304.987 200.573 304.993 200.569 304.997 200.567 304.999 200.565 305 200.562 305L131.438 305C131.432 305 131.428 304.995 131.428 304.99 131.428 304.987 131.429 304.985 131.431 304.983ZM178.414 280 201.983 256.431C201.987 256.427 201.993 256.427 201.997 256.431 201.999 256.433 202 256.435 202 256.438L202 303.562C202 303.568 201.995 303.572 201.99 303.572 201.987 303.572 201.985 303.571 201.983 303.569Z"/></g></svg>