<svg width="286" height="286" xmlns="http://www.w3.org/2000/svg" xmlns:xlink="http://www.w3.org/1999/xlink" xml:space="preserve" overflow="hidden"><g transform="translate(-854 -85)"><path d="M974.276 125 1089 125 1078.4 133.278 1078.4 147.887C1082.33 148.393 1081.92 150.758 1081.92 153.589L1081.92 222.614C1081.92 225.81 1079.3 228.426 1076.11 228.426L1073.97 228.426C1070.77 228.426 1068.16 225.81 1068.16 222.614L1068.16 153.589C1068.16 150.752 1067.74 148.384 1071.71 147.885L1071.71 138.701 1041.19 163.738C1041.54 164.392 1041.87 164.812 1042.19 165.36 1044.87 170.11 1046.24 176.014 1046.24 183.231 1046.24 188.762 1045.32 193.733 1043.45 198.121 1041.59 202.51 1039.33 206.093 1036.69 208.855 1034.05 211.626 1031.4 214.157 1028.75 216.436 1026.1 218.72 1023.84 221.102 1021.99 223.574 1020.12 226.038 1019.19 228.587 1019.19 231.228 1019.19 233.872 1020.4 236.559 1022.8 239.266 1025.2 241.982 1028.15 244.612 1031.63 247.212 1035.13 249.794 1038.61 252.66 1042.1 255.778 1045.6 258.891 1048.53 262.898 1050.93 267.765 1053.34 272.648 1054.55 278.025 1054.55 283.935 1054.55 291.73 1052.56 298.77 1048.6 305.036 1044.62 311.276 1039.44 316.256 1033.08 319.907 1026.71 323.582 1019.88 326.348 1012.61 328.218 1005.32 330.07 998.086 331 990.862 331 986.302 331 981.7 330.648 977.073 329.927 972.431 329.206 967.78 327.933 963.095 326.139 958.403 324.333 954.245 322.115 950.641 319.45 947.029 316.814 944.121 313.411 941.892 309.266 939.662 305.121 938.555 300.46 938.555 295.285 938.555 289.144 940.265 283.449 943.693 278.139 947.121 272.866 951.663 268.465 957.312 264.979 967.168 258.847 982.63 255.058 1003.67 253.626 998.864 247.611 996.45 241.948 996.45 236.651 996.45 233.636 997.237 230.406 998.796 226.919 996.282 227.271 993.693 227.468 991.053 227.468 979.748 227.468 970.201 223.792 962.449 216.391 954.697 209.002 950.826 199.753 950.826 188.57 950.826 187.401 950.859 186.369 950.943 185.23L905 185.23 974.276 125ZM994.473 149.678C987.265 149.678 981.734 152.271 977.879 157.448 974.025 162.611 972.096 168.865 972.096 176.211 972.096 182.468 973.152 188.839 975.264 195.335 977.368 201.827 980.813 207.623 985.641 212.732 990.451 217.854 996.049 220.41 1002.41 220.41 1009.5 220.41 1015.04 218.035 1019.01 213.282 1022.97 208.537 1024.95 202.548 1024.95 195.335 1024.95 189.19 1023.91 182.758 1021.8 176.031 1019.71 169.296 1016.21 163.219 1011.34 157.809 1006.48 152.381 1000.84 149.678 994.473 149.678ZM1006.39 260.454C1001.22 260.454 996.133 260.912 991.138 261.826 986.143 262.714 981.215 264.214 976.354 266.331 971.476 268.436 967.538 271.529 964.537 275.62 961.52 279.705 960.019 284.517 960.019 290.054 960.019 295.33 961.344 300.036 963.993 304.135 966.633 308.208 970.119 311.399 974.452 313.683 978.785 315.971 983.328 317.697 988.071 318.833 992.823 319.96 997.659 320.548 1002.59 320.548 1012.33 320.548 1020.72 318.352 1027.76 313.963 1034.78 309.575 1038.31 302.799 1038.31 293.653 1038.31 291.73 1038.04 289.835 1037.51 287.987 1036.96 286.118 1036.41 284.517 1035.87 283.189 1035.34 281.885 1034.32 280.313 1032.81 278.503 1031.31 276.689 1030.16 275.347 1029.39 274.454 1028.6 273.532 1027.13 272.216 1024.95 270.476 1022.8 268.729 1021.43 267.64 1020.81 267.237L1020.81 267.237C1020.21 266.814 1018.64 265.67 1016.12 263.813 1013.6 261.939 1012.22 260.945 1011.97 260.827 1010.65 260.589 1008.79 260.454 1006.39 260.454Z" fill="#4084F3" fill-rule="evenodd"/></g></svg>