<svg width="96" height="128" xmlns="http://www.w3.org/2000/svg" xmlns:xlink="http://www.w3.org/1999/xlink" xml:space="preserve" overflow="hidden"><g transform="translate(-242 -399)"><path d="M327.94 425.665 327.94 418.858 332.881 415 279.409 415 247.119 443.069 268.533 443.069C268.494 443.6 268.478 444.08 268.478 444.625 268.478 449.836 270.283 454.146 273.896 457.59 277.509 461.039 281.959 462.752 287.228 462.752 288.459 462.752 289.665 462.66 290.837 462.496 290.111 464.121 289.744 465.627 289.744 467.031 289.744 469.5 290.869 472.139 293.111 474.942 283.302 475.609 276.095 477.375 271.501 480.233 268.869 481.857 266.751 483.909 265.154 486.366 263.556 488.841 262.759 491.494 262.759 494.356 262.759 496.768 263.275 498.94 264.314 500.871 265.353 502.803 266.709 504.389 268.392 505.617 270.072 506.859 272.009 507.893 274.197 508.735 276.38 509.571 278.548 510.164 280.712 510.5 282.869 510.836 285.013 511 287.139 511 290.506 511 293.877 510.566 297.276 509.703 300.666 508.832 303.845 507.543 306.818 505.83 309.783 504.129 312.197 501.809 314.049 498.901 315.896 495.98 316.822 492.699 316.822 489.066 316.822 486.312 316.26 483.807 315.135 481.531 314.018 479.263 312.65 477.396 311.022 475.945 309.396 474.492 307.772 473.156 306.143 471.953 304.518 470.742 303.143 469.516 302.026 468.25 300.905 466.988 300.342 465.737 300.342 464.504 300.342 463.274 300.776 462.086 301.646 460.938 302.51 459.785 303.565 458.676 304.798 457.611 306.033 456.549 307.267 455.369 308.497 454.078 309.728 452.791 310.783 451.121 311.65 449.076 312.521 447.031 312.951 444.715 312.951 442.137 312.951 438.773 312.314 436.021 311.064 433.808 310.915 433.553 310.759 433.357 310.595 433.053L324.822 421.385 324.822 425.664C322.974 425.897 323.166 427.001 323.166 428.323L323.166 460.49C323.166 461.979 324.385 463.198 325.875 463.198L326.872 463.198C328.361 463.198 329.58 461.98 329.58 460.49L329.58 428.323C329.58 427.004 329.775 425.901 327.94 425.665ZM301.1 481.285C301.385 481.473 302.026 481.98 303.029 482.795 304.042 483.606 304.729 484.219 305.096 484.648 305.455 485.065 305.991 485.69 306.69 486.535 307.393 487.379 307.869 488.111 308.119 488.719 308.37 489.338 308.623 490.084 308.881 490.955 309.127 491.816 309.252 492.699 309.252 493.596 309.252 497.858 307.611 501.016 304.338 503.06 301.057 505.106 297.146 506.129 292.604 506.129 290.307 506.129 288.053 505.856 285.838 505.33 283.627 504.801 281.51 503.996 279.491 502.93 277.471 501.865 275.846 500.379 274.615 498.48 273.381 496.57 272.764 494.377 272.764 491.918 272.764 489.338 273.463 487.095 274.869 485.191 276.268 483.285 278.104 481.844 280.377 480.863 282.643 479.876 284.94 479.177 287.268 478.763 289.596 478.337 291.967 478.125 294.377 478.125 295.495 478.125 296.361 478.187 296.979 478.298 297.092 478.353 297.737 478.816 298.912 479.689 300.088 480.555 300.819 481.088 301.1 481.285ZM300.26 456.141C298.409 458.356 295.827 459.463 292.522 459.463 289.557 459.463 286.947 458.272 284.705 455.885 282.455 453.504 280.85 450.803 279.869 447.777 278.885 444.75 278.393 441.781 278.393 438.865 278.393 435.442 279.292 432.527 281.088 430.121 282.885 427.709 285.463 426.5 288.823 426.5 291.791 426.5 294.416 427.759 296.682 430.289 298.955 432.81 300.584 435.643 301.561 438.781 302.542 441.916 303.029 444.914 303.029 447.777 303.029 451.139 302.104 453.93 300.26 456.141Z" fill="#3769C3"/></g></svg>