<svg width="286" height="286" xmlns="http://www.w3.org/2000/svg" xmlns:xlink="http://www.w3.org/1999/xlink" xml:space="preserve" overflow="hidden"><g transform="translate(-893 -1271)"><path d="M1013.28 1311 1128 1311 1117.4 1319.28 1117.4 1333.89C1121.33 1334.39 1120.92 1336.76 1120.92 1339.59L1120.92 1408.61C1120.92 1411.81 1118.3 1414.43 1115.11 1414.43L1112.97 1414.43C1109.77 1414.43 1107.16 1411.81 1107.16 1408.61L1107.16 1339.59C1107.16 1336.75 1106.74 1334.38 1110.71 1333.88L1110.71 1324.7 1080.19 1349.74C1080.54 1350.39 1080.87 1350.81 1081.19 1351.36 1083.87 1356.11 1085.24 1362.01 1085.24 1369.23 1085.24 1374.76 1084.32 1379.73 1082.45 1384.12 1080.59 1388.51 1078.32 1392.09 1075.69 1394.85 1073.05 1397.63 1070.4 1400.16 1067.75 1402.44 1065.1 1404.72 1062.84 1407.1 1060.99 1409.57 1059.12 1412.04 1058.19 1414.59 1058.19 1417.23 1058.19 1419.87 1059.4 1422.56 1061.8 1425.27 1064.2 1427.98 1067.15 1430.61 1070.63 1433.21 1074.13 1435.79 1077.61 1438.66 1081.1 1441.78 1084.6 1444.89 1087.53 1448.9 1089.93 1453.77 1092.34 1458.65 1093.55 1464.03 1093.55 1469.93 1093.55 1477.73 1091.56 1484.77 1087.6 1491.04 1083.62 1497.28 1078.44 1502.26 1072.08 1505.91 1065.71 1509.58 1058.88 1512.35 1051.61 1514.22 1044.32 1516.07 1037.09 1517 1029.86 1517 1025.3 1517 1020.7 1516.65 1016.07 1515.93 1011.43 1515.21 1006.78 1513.93 1002.1 1512.14 997.402 1510.33 993.244 1508.11 989.641 1505.45 986.029 1502.81 983.121 1499.41 980.892 1495.27 978.662 1491.12 977.555 1486.46 977.555 1481.28 977.555 1475.14 979.265 1469.45 982.693 1464.14 986.121 1458.87 990.663 1454.47 996.311 1450.98 1006.17 1444.85 1021.63 1441.06 1042.67 1439.63 1037.86 1433.61 1035.45 1427.95 1035.45 1422.65 1035.45 1419.64 1036.24 1416.41 1037.8 1412.92 1035.28 1413.27 1032.69 1413.47 1030.05 1413.47 1018.75 1413.47 1009.2 1409.79 1001.45 1402.39 993.697 1395 989.826 1385.75 989.826 1374.57 989.826 1373.4 989.859 1372.37 989.943 1371.23L944 1371.23 1013.28 1311ZM1033.47 1335.68C1026.26 1335.68 1020.73 1338.27 1016.88 1343.45 1013.02 1348.61 1011.1 1354.86 1011.1 1362.21 1011.1 1368.47 1012.15 1374.84 1014.26 1381.34 1016.37 1387.83 1019.81 1393.62 1024.64 1398.73 1029.45 1403.85 1035.05 1406.41 1041.41 1406.41 1048.5 1406.41 1054.04 1404.03 1058.01 1399.28 1061.97 1394.54 1063.95 1388.55 1063.95 1381.34 1063.95 1375.19 1062.91 1368.76 1060.8 1362.03 1058.71 1355.3 1055.21 1349.22 1050.34 1343.81 1045.47 1338.38 1039.84 1335.68 1033.47 1335.68ZM1045.39 1446.45C1040.22 1446.45 1035.13 1446.91 1030.14 1447.83 1025.14 1448.71 1020.22 1450.21 1015.35 1452.33 1010.48 1454.44 1006.54 1457.53 1003.54 1461.62 1000.52 1465.71 999.019 1470.52 999.019 1476.05 999.019 1481.33 1000.34 1486.04 1002.99 1490.13 1005.63 1494.21 1009.12 1497.4 1013.45 1499.68 1017.79 1501.97 1022.33 1503.7 1027.07 1504.83 1031.82 1505.96 1036.66 1506.55 1041.59 1506.55 1051.33 1506.55 1059.72 1504.35 1066.76 1499.96 1073.78 1495.58 1077.31 1488.8 1077.31 1479.65 1077.31 1477.73 1077.04 1475.83 1076.51 1473.99 1075.96 1472.12 1075.41 1470.52 1074.87 1469.19 1074.34 1467.89 1073.32 1466.31 1071.81 1464.5 1070.31 1462.69 1069.16 1461.35 1068.39 1460.45 1067.6 1459.53 1066.13 1458.22 1063.95 1456.48 1061.8 1454.73 1060.43 1453.64 1059.81 1453.24L1059.81 1453.24C1059.21 1452.81 1057.64 1451.67 1055.12 1449.81 1052.6 1447.94 1051.22 1446.95 1050.97 1446.83 1049.65 1446.59 1047.79 1446.45 1045.39 1446.45Z" fill="#FFFFFF" fill-rule="evenodd"/></g></svg>