<svg width="72" height="96" xmlns="http://www.w3.org/2000/svg" xmlns:xlink="http://www.w3.org/1999/xlink" xml:space="preserve" overflow="hidden"><g transform="translate(-267 -232)"><path d="M331.455 251.999 331.455 246.893 335.161 244 295.056 244 270.839 265.051 286.9 265.051C286.871 265.45 286.859 265.81 286.859 266.219 286.859 270.127 288.212 273.36 290.922 275.943 293.632 278.529 296.969 279.814 300.921 279.814 301.844 279.814 302.749 279.745 303.628 279.622 303.083 280.841 302.808 281.97 302.808 283.024 302.808 284.875 303.652 286.854 305.333 288.957 297.977 289.457 292.572 290.781 289.126 292.925 287.152 294.143 285.564 295.682 284.365 297.524 283.167 299.38 282.57 301.371 282.57 303.517 282.57 305.326 282.956 306.955 283.736 308.404 284.515 309.852 285.531 311.042 286.794 311.963 288.054 312.895 289.507 313.67 291.148 314.301 292.785 314.928 294.411 315.373 296.034 315.625 297.652 315.877 299.26 316 300.854 316 303.38 316 305.908 315.675 308.457 315.027 311 314.374 313.384 313.407 315.614 312.122 317.837 310.847 319.648 309.106 321.037 306.925 322.422 304.735 323.117 302.274 323.117 299.55 323.117 297.484 322.695 295.605 321.851 293.898 321.013 292.197 319.988 290.797 318.766 289.709 317.547 288.619 316.329 287.617 315.107 286.715 313.888 285.806 312.857 284.887 312.019 283.938 311.178 282.991 310.757 282.052 310.757 281.128 310.757 280.205 311.082 279.315 311.734 278.453 312.382 277.589 313.173 276.757 314.099 275.958 315.025 275.162 315.95 274.277 316.873 273.309 317.796 272.343 318.587 271.091 319.237 269.557 319.891 268.023 320.213 266.286 320.213 264.353 320.213 261.83 319.736 259.766 318.798 258.106 318.687 257.915 318.57 257.768 318.446 257.54L329.117 248.789 329.117 251.998C327.73 252.173 327.875 253.001 327.875 253.992L327.875 278.117C327.875 279.235 328.789 280.149 329.906 280.149L330.654 280.149C331.771 280.149 332.685 279.235 332.685 278.117L332.685 253.992C332.685 253.003 332.831 252.176 331.455 251.999ZM311.325 293.714C311.539 293.855 312.019 294.235 312.772 294.846 313.531 295.454 314.046 295.914 314.322 296.236 314.591 296.548 314.993 297.017 315.517 297.651 316.045 298.284 316.402 298.833 316.589 299.289 316.777 299.753 316.967 300.313 317.161 300.966 317.345 301.612 317.439 302.274 317.439 302.947 317.439 306.143 316.208 308.512 313.754 310.045 311.293 311.579 308.36 312.347 304.953 312.347 303.23 312.347 301.54 312.142 299.879 311.747 298.22 311.351 296.633 310.747 295.118 309.947 293.603 309.149 292.385 308.034 291.461 306.61 290.536 305.178 290.073 303.533 290.073 301.689 290.073 299.753 290.597 298.072 291.652 296.644 292.701 295.214 294.078 294.133 295.783 293.397 297.482 292.657 299.205 292.133 300.951 291.822 302.697 291.503 304.475 291.343 306.283 291.343 307.121 291.343 307.771 291.39 308.234 291.474 308.319 291.515 308.802 291.862 309.684 292.517 310.566 293.166 311.114 293.566 311.325 293.714ZM310.695 274.856C309.306 276.517 307.37 277.347 304.891 277.347 302.668 277.347 300.71 276.454 299.029 274.664 297.341 272.878 296.137 270.852 295.402 268.583 294.664 266.312 294.295 264.086 294.295 261.899 294.295 259.331 294.969 257.145 296.316 255.341 297.664 253.532 299.597 252.625 302.117 252.625 304.343 252.625 306.312 253.57 308.011 255.467 309.716 257.358 310.938 259.482 311.671 261.836 312.406 264.187 312.772 266.435 312.772 268.583 312.772 271.104 312.078 273.197 310.695 274.856Z" fill="#3769C3"/></g></svg>