<svg width="330" height="330" xmlns="http://www.w3.org/2000/svg" xmlns:xlink="http://www.w3.org/1999/xlink" xml:space="preserve" overflow="hidden"><g transform="translate(-881 -797)"><g><g><g><path d="M221.563 68.747 221.563 51.1952 234.303 41.25 96.4438 41.25 13.1976 113.614 68.4054 113.614C68.3055 114.984 68.2642 116.222 68.2642 117.626 68.2642 131.062 72.9171 142.175 82.2325 151.052 91.5479 159.945 103.02 164.361 116.603 164.361 119.776 164.361 122.888 164.123 125.909 163.701 124.036 167.891 123.09 171.772 123.09 175.394 123.09 181.758 125.99 188.561 131.77 195.788 106.482 197.509 87.9025 202.061 76.0586 209.428 69.271 213.617 63.8122 218.905 59.6935 225.239 55.5746 231.62 53.5204 238.462 53.5204 245.84 53.5204 252.058 54.8497 257.658 57.5288 262.637 60.2079 267.617 63.7019 271.707 68.0425 274.873 72.3725 278.075 77.3682 280.739 83.0079 282.91 88.6372 285.065 94.2266 286.596 99.805 287.462 105.365 288.327 110.894 288.75 116.373 288.75 125.055 288.75 133.745 287.632 142.507 285.407 151.248 283.161 159.445 279.837 167.11 275.421 174.753 271.035 180.977 265.053 185.751 257.556 190.514 250.028 192.901 241.568 192.901 232.203 192.901 225.103 191.452 218.642 188.551 212.776 185.671 206.929 182.145 202.115 177.947 198.374 173.757 194.628 169.568 191.185 165.368 188.083 161.179 184.96 157.634 181.798 154.754 178.535 151.863 175.283 150.413 172.055 150.413 168.877 150.413 165.706 151.531 162.644 153.775 159.683 156.002 156.712 158.721 153.852 161.902 151.107 165.084 148.369 168.267 145.327 171.439 141.998 174.611 138.681 177.331 134.375 179.566 129.102 181.813 123.831 182.92 117.858 182.92 111.212 182.92 102.541 181.278 95.4461 178.056 89.74 177.673 89.0813 177.271 88.5779 176.847 87.7922L213.525 57.7107 213.525 68.7444C208.76 69.3432 209.256 72.1894 209.256 75.599L209.256 158.529C209.256 162.369 212.398 165.512 216.239 165.512L218.81 165.512C222.65 165.512 225.792 162.37 225.792 158.529L225.792 75.599C225.792 72.1978 226.294 69.3548 221.563 68.747ZM152.367 212.142C153.102 212.625 154.754 213.934 157.341 216.034 159.951 218.124 161.722 219.705 162.669 220.813 163.596 221.885 164.976 223.497 166.778 225.677 168.591 227.852 169.819 229.74 170.464 231.306 171.109 232.903 171.763 234.826 172.428 237.072 173.062 239.293 173.385 241.568 173.385 243.88 173.385 254.868 169.154 263.009 160.716 268.281 152.256 273.554 142.175 276.192 130.463 276.192 124.541 276.192 118.73 275.487 113.02 274.132 107.32 272.768 101.862 270.693 96.6552 267.944 91.4487 265.199 87.2599 261.367 84.0862 256.473 80.9041 251.549 79.3128 245.893 79.3128 239.554 79.3128 232.903 81.1155 227.121 84.741 222.212 88.3465 217.298 93.08 213.582 98.9414 211.052 104.783 208.509 110.704 206.707 116.706 205.64 122.708 204.542 128.821 203.993 135.035 203.993 137.916 203.993 140.15 204.155 141.741 204.441 142.035 204.583 143.696 205.776 146.727 208.027 149.759 210.259 151.641 211.633 152.367 212.142ZM150.202 147.316C145.428 153.027 138.771 155.881 130.251 155.881 122.607 155.881 115.88 152.81 110.099 146.656 104.299 140.518 100.16 133.554 97.6317 125.754 95.0941 117.949 93.8251 110.295 93.8251 102.778 93.8251 93.9514 96.1428 86.4374 100.774 80.2345 105.406 74.0147 112.052 70.8984 120.714 70.8984 128.368 70.8984 135.135 74.1456 140.976 80.6676 146.838 87.1677 151.038 94.4689 153.556 102.561 156.084 110.643 157.341 118.371 157.341 125.754 157.341 134.42 154.955 141.616 150.202 147.316Z" fill="#3769C3" transform="matrix(1.00202 0 0 1 917 797)"/></g></g></g></g></svg>