<svg width="84" height="96" xmlns="http://www.w3.org/2000/svg" xmlns:xlink="http://www.w3.org/1999/xlink" xml:space="preserve" overflow="hidden"><g transform="translate(-270 -520)"><path d="M279 526C274.031 526 270 530.031 270 535L270 601C270 605.969 274.031 610 279 610L345 610C349.969 610 354 605.969 354 601L354 535C354 530.031 349.969 526 345 526L279 526ZM305.38 538 338.8 538 335.712 540.411 335.712 544.666C336.859 544.813 336.738 545.502 336.738 546.327L336.738 566.431C336.738 567.362 335.976 568.124 335.045 568.124L334.422 568.124C333.491 568.124 332.729 567.362 332.729 566.431L332.729 546.327C332.729 545.5 332.609 544.811 333.764 544.665L333.764 541.991 324.872 549.283C324.975 549.473 325.072 549.596 325.165 549.755 325.946 551.139 326.344 552.858 326.344 554.96 326.344 556.572 326.076 558.019 325.531 559.297 324.989 560.576 324.33 561.619 323.561 562.424 322.792 563.231 322.021 563.968 321.249 564.632 320.478 565.297 319.819 565.991 319.279 566.711 318.735 567.429 318.464 568.171 318.464 568.94 318.464 569.71 318.815 570.493 319.516 571.281 320.214 572.072 321.073 572.839 322.089 573.596 323.107 574.348 324.123 575.182 325.139 576.091 326.156 576.997 327.011 578.165 327.709 579.582 328.413 581.004 328.764 582.57 328.764 584.292 328.764 586.562 328.185 588.613 327.03 590.438 325.873 592.255 324.364 593.706 322.511 594.769 320.653 595.839 318.666 596.645 316.547 597.19 314.423 597.729 312.316 598 310.212 598 308.883 598 307.543 597.897 306.195 597.688 304.843 597.478 303.488 597.107 302.123 596.584 300.756 596.058 299.545 595.412 298.495 594.636 297.443 593.868 296.596 592.877 295.946 591.67 295.297 590.462 294.974 589.105 294.974 587.597 294.974 585.809 295.473 584.15 296.471 582.603 297.47 581.068 298.793 579.786 300.438 578.771 303.31 576.985 307.814 575.881 313.944 575.464 312.543 573.712 311.84 572.063 311.84 570.52 311.84 569.642 312.069 568.701 312.523 567.685 311.791 567.788 311.037 567.845 310.267 567.845 306.974 567.845 304.193 566.775 301.935 564.619 299.677 562.467 298.549 559.773 298.549 556.516 298.549 556.175 298.559 555.875 298.583 555.543L285.2 555.543 305.38 538ZM311.264 545.188C309.164 545.188 307.553 545.943 306.43 547.451 305.307 548.955 304.745 550.776 304.745 552.916 304.745 554.738 305.053 556.594 305.668 558.486 306.281 560.377 307.285 562.065 308.691 563.553 310.092 565.045 311.723 565.789 313.576 565.789 315.642 565.789 317.255 565.097 318.413 563.713 319.565 562.331 320.143 560.587 320.143 558.486 320.143 556.696 319.838 554.823 319.226 552.863 318.615 550.902 317.597 549.132 316.176 547.556 314.76 545.975 313.119 545.188 311.264 545.188ZM314.736 577.453C313.229 577.453 311.747 577.586 310.292 577.852 308.837 578.111 307.402 578.548 305.986 579.164 304.565 579.777 303.417 580.678 302.543 581.87 301.664 583.06 301.227 584.461 301.227 586.074 301.227 587.611 301.613 588.981 302.385 590.175 303.154 591.362 304.169 592.291 305.432 592.956 306.694 593.623 308.017 594.125 309.399 594.456 310.783 594.785 312.192 594.956 313.627 594.956 316.467 594.956 318.91 594.316 320.961 593.038 323.007 591.76 324.033 589.786 324.033 587.122 324.033 586.562 323.954 586.01 323.8 585.472 323.639 584.927 323.481 584.461 323.325 584.074 323.168 583.695 322.871 583.237 322.431 582.71 321.994 582.181 321.659 581.79 321.435 581.53 321.205 581.262 320.776 580.878 320.143 580.372 319.516 579.863 319.116 579.546 318.938 579.428L318.937 579.428C318.761 579.305 318.305 578.972 317.57 578.431 316.835 577.885 316.433 577.596 316.362 577.561 315.976 577.492 315.434 577.453 314.736 577.453Z"/></g></svg>