<svg width="285" height="286" xmlns="http://www.w3.org/2000/svg" xmlns:xlink="http://www.w3.org/1999/xlink" xml:space="preserve" overflow="hidden"><g transform="translate(-2399 -1238)"><path d="M2484.85 1483 2442.39 1483 2442.39 1346.7 2484.91 1346.7 2484.91 1483 2484.85 1483ZM2463.62 1279C2477.24 1279 2488.24 1289.96 2488.24 1303.54 2488.24 1317.12 2477.24 1328.09 2463.62 1328.09 2450 1328.09 2439 1317.12 2439 1303.54 2439 1289.96 2450 1279 2463.62 1279ZM2644 1483 2601.54 1483 2601.54 1416.7C2601.54 1400.89 2601.22 1380.55 2579.48 1380.55 2557.36 1380.55 2553.97 1397.77 2553.97 1415.55L2553.97 1483 2511.51 1483 2511.51 1346.7 2552.24 1346.7 2552.24 1365.32 2552.82 1365.32C2558.51 1354.61 2572.38 1343.32 2593.04 1343.32 2636.01 1343.32 2644 1371.57 2644 1408.28L2644 1483Z" fill="#FFFFFF" fill-rule="evenodd"/></g></svg>