<svg width="96" height="96" xmlns="http://www.w3.org/2000/svg" xmlns:xlink="http://www.w3.org/1999/xlink" xml:space="preserve" overflow="hidden"><g transform="translate(-765 -232)"><path d="M841.8 246.4 784.185 246.4C781.545 246.4 779.4 248.575 779.4 251.245L779.4 308.755C779.4 311.425 781.545 313.6 784.185 313.6L841.8 313.6C844.44 313.6 846.6 311.425 846.6 308.755L846.6 251.245C846.6 248.575 844.44 246.4 841.8 246.4ZM799.71 304 789.75 304 789.75 271.93 799.725 271.93 799.725 304 799.71 304ZM794.73 256C797.925 256 800.505 258.58 800.505 261.775 800.505 264.97 797.925 267.55 794.73 267.55 791.535 267.55 788.955 264.97 788.955 261.775 788.955 258.58 791.535 256 794.73 256ZM837.045 304 827.085 304 827.085 288.4C827.085 284.68 827.01 279.895 821.91 279.895 816.72 279.895 815.925 283.945 815.925 288.13L815.925 304 805.965 304 805.965 271.93 815.52 271.93 815.52 276.31 815.655 276.31C816.99 273.79 820.245 271.135 825.09 271.135 835.17 271.135 837.045 277.78 837.045 286.42L837.045 304Z" fill="#0A66C2"/></g></svg>