<svg width="285" height="286" xmlns="http://www.w3.org/2000/svg" xmlns:xlink="http://www.w3.org/1999/xlink" xml:space="preserve" overflow="hidden"><g transform="translate(-2399 -82)"><path d="M2438 155.667C2438 136.521 2453.52 121 2472.67 121L2611.33 121C2630.48 121 2646 136.521 2646 155.667L2646 294.333C2646 313.479 2630.48 329 2611.33 329L2472.67 329C2453.52 329 2438 313.479 2438 294.333Z" fill="#0A66C2" fill-rule="evenodd"/><path d="M2494.8 309 2459.79 309 2459.79 196.755 2494.85 196.755 2494.85 309 2494.8 309ZM2477.29 141C2488.52 141 2497.59 150.03 2497.59 161.212 2497.59 172.395 2488.52 181.425 2477.29 181.425 2466.07 181.425 2457 172.395 2457 161.212 2457 150.03 2466.07 141 2477.29 141ZM2626 309 2591 309 2591 254.4C2591 241.38 2590.73 224.633 2572.81 224.633 2554.57 224.633 2551.78 238.807 2551.78 253.455L2551.78 309 2516.78 309 2516.78 196.755 2550.36 196.755 2550.36 212.085 2550.83 212.085C2555.52 203.265 2566.96 193.973 2583.99 193.973 2619.41 193.973 2626 217.23 2626 247.47L2626 309Z" fill="#FFFFFF" fill-rule="evenodd"/></g></svg>