<svg width="96" height="96" xmlns="http://www.w3.org/2000/svg" xmlns:xlink="http://www.w3.org/1999/xlink" xml:space="preserve" overflow="hidden"><g transform="translate(-770 -421)"><path d="M846.8 435.4 789.185 435.4C786.545 435.4 784.4 437.575 784.4 440.245L784.4 497.755C784.4 500.425 786.545 502.6 789.185 502.6L846.8 502.6C849.44 502.6 851.6 500.425 851.6 497.755L851.6 440.245C851.6 437.575 849.44 435.4 846.8 435.4ZM804.71 493 794.75 493 794.75 460.93 804.725 460.93 804.725 493 804.71 493ZM799.73 445C802.925 445 805.505 447.58 805.505 450.775 805.505 453.97 802.925 456.55 799.73 456.55 796.535 456.55 793.955 453.97 793.955 450.775 793.955 447.58 796.535 445 799.73 445ZM842.045 493 832.085 493 832.085 477.4C832.085 473.68 832.01 468.895 826.91 468.895 821.72 468.895 820.925 472.945 820.925 477.13L820.925 493 810.965 493 810.965 460.93 820.52 460.93 820.52 465.31 820.655 465.31C821.99 462.79 825.245 460.135 830.09 460.135 840.17 460.135 842.045 466.78 842.045 475.42L842.045 493Z" fill="#0A66C2"/></g></svg>