<svg width="285" height="286" xmlns="http://www.w3.org/2000/svg" xmlns:xlink="http://www.w3.org/1999/xlink" xml:space="preserve" overflow="hidden"><g transform="translate(-1216 -1243)"><path d="M1308.01 1453.01 1293.01 1453.01 1293.01 1350 1308.01 1350 1308.01 1396.55 1308.01 1453.01Z" fill="#FFFFFF" fill-rule="evenodd"/><path d="M1330.01 1350 1370.51 1350C1409.07 1350 1426.01 1377.2 1426.01 1401.5 1426.01 1427.93 1405.07 1453.01 1370.7 1453.01L1330.01 1453.01 1330.01 1350ZM1345 1439.65 1368.85 1439.65C1402.83 1439.65 1410.62 1414.19 1410.62 1401.5 1410.62 1380.85 1397.28 1363.36 1368.08 1363.36L1345 1363.36 1345 1439.65Z" fill="#FFFFFF" fill-rule="evenodd"/><path d="M1311.01 1328.5C1311.01 1333.68 1306.55 1338 1301.01 1338 1295.46 1338 1291.01 1333.68 1291.01 1328.5 1291.01 1323.24 1295.46 1319 1301.01 1319 1306.55 1319 1311.01 1323.33 1311.01 1328.5Z" fill="#FFFFFF" fill-rule="evenodd"/></g></svg>