<svg width="96" height="96" xmlns="http://www.w3.org/2000/svg" xmlns:xlink="http://www.w3.org/1999/xlink" xml:space="preserve" overflow="hidden"><g transform="translate(-376 -415)"><path d="M472 463C472 489.513 450.513 511 424 511 397.487 511 376 489.513 376 463 376 436.487 397.487 415 424 415 450.513 415 472 436.487 472 463Z" fill="#A6CE39"/><path d="M407.875 484.381 402.086 484.381 402.086 444.406 407.875 444.406 407.875 462.471 407.875 484.381Z" fill="#FFFFFF"/><path d="M416.371 444.406 432.009 444.406C446.896 444.406 453.437 454.969 453.437 464.412 453.437 474.676 445.355 484.418 432.085 484.418L416.371 484.418 416.371 444.406ZM422.16 479.23 431.37 479.23C444.49 479.23 447.497 469.339 447.497 464.412 447.497 456.387 442.347 449.594 431.07 449.594L422.16 449.594 422.16 479.23Z" fill="#FFFFFF"/><path d="M408.777 436.083C408.777 438.136 407.086 439.853 404.98 439.853 402.875 439.853 401.184 438.136 401.184 436.083 401.184 433.993 402.875 432.313 404.98 432.313 407.086 432.313 408.777 434.03 408.777 436.083Z" fill="#FFFFFF"/></g></svg>