<svg width="84" height="96" xmlns="http://www.w3.org/2000/svg" xmlns:xlink="http://www.w3.org/1999/xlink" xml:space="preserve" overflow="hidden"><g transform="translate(-394 -523)"><path d="M403 529C398.031 529 394 533.031 394 538L394 604C394 608.969 398.031 613 403 613L469 613C473.969 613 478 608.969 478 604L478 538C478 533.031 473.969 529 469 529L403 529ZM436 541C452.57 541 466 554.432 466 571 466 587.568 452.57 601 436 601 419.43 601 406 587.568 406 571 406 554.432 419.43 541 436 541ZM424.26 551.923C422.91 551.923 421.815 553.02 421.815 554.365 421.815 555.72 422.913 556.81 424.26 556.81 425.612 556.81 426.705 555.722 426.707 554.365 426.707 553.017 425.612 551.923 424.26 551.923ZM422.485 559.405 422.485 584.248 426.04 584.248 426.04 559.405 422.485 559.405ZM431.585 559.405 431.585 584.21 439.443 584.21C441.65 584.21 443.143 584.15 443.928 584.028 444.71 583.9 445.568 583.652 446.505 583.287 448.108 582.682 449.513 581.792 450.72 580.602 451.908 579.452 452.82 578.118 453.46 576.6L453.46 576.6C454.098 575.085 454.423 573.495 454.42 571.83 454.42 569.51 453.838 567.363 452.675 565.395 451.513 563.43 449.95 561.935 447.982 560.923 446.012 559.908 443.343 559.405 439.96 559.405L431.585 559.405ZM435.147 562.57 439.587 562.57C441.297 562.57 442.533 562.633 443.303 562.765 444.075 562.893 444.89 563.163 445.753 563.565L445.753 563.565C446.608 563.97 447.372 564.487 448.037 565.112 449.84 566.797 450.74 568.975 450.74 571.642 450.74 574.357 449.862 576.602 448.11 578.382 447.562 578.93 446.96 579.388 446.303 579.76 445.645 580.135 444.825 580.44 443.84 580.683 442.855 580.925 441.475 581.047 439.7 581.047L435.147 581.047 435.147 562.57Z"/></g></svg>