<svg width="285" height="286" xmlns="http://www.w3.org/2000/svg" xmlns:xlink="http://www.w3.org/1999/xlink" xml:space="preserve" overflow="hidden"><defs><clipPath id="clip0"><rect x="1237" y="115" width="247" height="248"/></clipPath><clipPath id="clip1"><rect x="1237" y="115" width="247" height="248"/></clipPath><clipPath id="clip2"><rect x="1237" y="115" width="247" height="248"/></clipPath></defs><g transform="translate(-1218 -96)"><g clip-path="url(#clip0)"><g clip-path="url(#clip1)"><g clip-path="url(#clip2)"><path d="M247 123.5C247 191.714 191.714 247 123.5 247 55.2854 247 0 191.714 0 123.5 0 55.2854 55.2854 0 123.5 0 191.714 0 247 55.2854 247 123.5Z" fill="#A6CE39" transform="matrix(1 0 0 1.00405 1237 115)"/><path d="M17.2809 134.221 2.38571 134.221 2.38571 31.3701 17.2809 31.3701 17.2809 77.8499 17.2809 134.221Z" fill="#FFFFFF" transform="matrix(1 0 0 1.00405 1301.73 159.469)"/><path d="M39.1402 31.3701 79.3765 31.3701C117.678 31.3701 134.508 58.5472 134.508 82.8434 134.508 109.252 113.713 134.317 79.57 134.317L39.1402 134.317 39.1402 31.3701ZM54.0353 120.968 77.7322 120.968C111.488 120.968 119.226 95.5196 119.226 82.8434 119.226 62.1966 105.975 44.7186 76.9583 44.7186L54.0353 44.7186 54.0353 120.968Z" fill="#FFFFFF" transform="matrix(1 0 0 1.00405 1301.73 159.469)"/><path d="M19.6022 9.95485C19.6022 15.2366 15.2497 19.6541 9.8333 19.6541 4.41687 19.6541 0.0643815 15.2366 0.0643815 9.95485 0.0643815 4.57704 4.41687 0.255594 9.8333 0.255594 15.2497 0.255594 19.6022 4.67306 19.6022 9.95485Z" fill="#FFFFFF" transform="matrix(1 0 0 1.00405 1301.73 159.469)"/></g></g></g></g></svg>