<svg width="330" height="330" xmlns="http://www.w3.org/2000/svg" xmlns:xlink="http://www.w3.org/1999/xlink" xml:space="preserve" overflow="hidden"><g transform="translate(-1303 -797)"><g><g><g><path d="M247 123.5C247 191.714 191.714 247 123.5 247 55.2855 247 0 191.714 0 123.5 0 55.2855 55.2855 0 123.5 0 191.714 0 247 55.2855 247 123.5Z" fill="#A6CE39" transform="matrix(1.00405 0 0 1 1345 838)"/><path d="M17.2809 134.221 2.38571 134.221 2.38571 31.3701 17.2809 31.3701 17.2809 77.8497 17.2809 134.221Z" fill="#FFFFFF" transform="matrix(1.00405 0 0 1 1409.99 882.29)"/><path d="M39.1401 31.3701 79.3764 31.3701C117.678 31.3701 134.508 58.5472 134.508 82.8434 134.508 109.252 113.713 134.317 79.5698 134.317L39.1401 134.317 39.1401 31.3701ZM54.0352 120.968 77.7321 120.968C111.488 120.968 119.226 95.5197 119.226 82.8434 119.226 62.1964 105.975 44.7186 76.9584 44.7186L54.0352 44.7186 54.0352 120.968Z" fill="#FFFFFF" transform="matrix(1.00405 0 0 1 1409.99 882.29)"/><path d="M19.6022 9.95486C19.6022 15.2366 15.2497 19.6541 9.8333 19.6541 4.41687 19.6541 0.0643815 15.2366 0.0643815 9.95486 0.0643815 4.57705 4.41687 0.255594 9.8333 0.255594 15.2497 0.255594 19.6022 4.67308 19.6022 9.95486Z" fill="#FFFFFF" transform="matrix(1.00405 0 0 1 1409.99 882.29)"/></g></g></g></g></svg>