<svg width="286" height="286" xmlns="http://www.w3.org/2000/svg" xmlns:xlink="http://www.w3.org/1999/xlink" xml:space="preserve" overflow="hidden"><g transform="translate(-1627 -1217)"><path d="M1834.86 1257C1838.5 1257 1841.79 1257.42 1844.72 1258.28 1847.61 1259.12 1850.2 1260.29 1852.49 1261.79 1854.74 1263.27 1856.69 1265.02 1858.3 1266.99 1859.95 1268.98 1861.28 1271.09 1862.32 1273.37 1862.73 1274.09 1862.61 1274.67 1861.97 1275.07L1852.99 1278.75C1852.23 1279.15 1851.69 1278.95 1851.27 1278.15 1849.26 1274.43 1847.54 1271.98 1844.72 1270.2 1841.86 1268.43 1839.21 1267.59 1834.86 1267.59 1830.13 1267.59 1828.01 1268.53 1825.05 1270.65 1822.11 1272.72 1819.95 1275.33 1818.68 1279.31 1818.43 1280.02 1818.2 1280.91 1817.92 1281.96 1817.7 1283.02 1817.52 1284.32 1817.4 1285.84 1817.29 1287.37 1817.18 1289.25 1817.08 1291.48 1817.01 1293.7 1816.98 1296.4 1816.98 1299.53 1816.98 1302.67 1817.01 1305.37 1817.08 1307.59 1817.18 1309.81 1817.29 1311.69 1817.4 1313.22 1817.52 1314.76 1817.7 1316.05 1817.92 1317.12 1818.2 1318.15 1818.43 1319.04 1818.68 1319.76 1819.95 1323.72 1821.77 1325.89 1824.45 1327.62 1827.09 1329.38 1830.13 1330.65 1834.86 1330.65 1839.07 1330.65 1842.91 1329.46 1845.42 1327.64 1847.91 1325.82 1849.98 1323.42 1850.9 1320.13 1851.31 1318.75 1851.83 1317.03 1852.18 1314.92 1852.5 1312.81 1852.5 1310.58 1852.5 1307.5 1852.5 1307.02 1852.23 1306.77 1851.78 1306.77L1837.4 1306.77C1836.59 1306.77 1836.19 1306.38 1836.19 1305.57L1836.19 1297.35C1836.19 1296.54 1836.59 1296.14 1837.4 1296.14L1863.78 1296.14C1864.61 1296.14 1865 1296.54 1865 1297.35L1865 1304.38C1865 1308.1 1865 1311.55 1864.61 1314.74 1864.24 1317.93 1863.74 1320.7 1863.1 1322.72 1861.08 1329.03 1857.89 1333.53 1852.99 1336.88 1848.08 1340.25 1841.74 1342.07 1834.86 1342.07 1827.79 1342.07 1821.84 1340.45 1816.98 1337.23 1812.12 1333.97 1808.64 1329.19 1806.52 1322.79 1806.11 1321.58 1805.8 1320.34 1805.56 1319.04 1805.31 1317.74 1805.09 1316.24 1804.89 1314.5 1804.68 1312.75 1804.55 1310.69 1804.47 1308.26 1804.39 1305.85 1804.35 1302.9 1804.35 1299.53 1804.35 1296.13 1804.39 1293.23 1804.47 1290.81 1804.55 1288.38 1804.68 1286.3 1804.89 1284.56 1805.09 1282.83 1805.31 1281.32 1805.56 1280.03 1805.8 1278.72 1806.11 1277.49 1806.52 1276.28 1808.64 1269.88 1812.12 1265.08 1816.98 1261.85 1821.84 1258.62 1827.79 1257 1834.86 1257ZM1736.9 1307.09C1765.04 1307.09 1786.51 1319.88 1786.51 1347.42 1786.51 1366.11 1771.7 1384.81 1751.72 1389.47 1763.82 1410.87 1778.36 1429.81 1789.23 1441.6 1795.62 1448.49 1804.5 1454.64 1813.38 1454.64L1813.38 1461.03C1810.67 1462.27 1806.24 1463 1802.05 1463 1787.74 1463 1776.4 1457.35 1768.98 1448.49 1760.85 1439.15 1746.54 1418.97 1731.49 1392.18 1723.58 1392.18 1718.4 1392.18 1712.48 1391.69L1712.48 1432.75C1712.48 1448 1715.95 1451.2 1722.6 1452.17L1735.44 1453.91 1735.44 1461.03C1729.27 1460.79 1714.96 1460.3 1703.86 1460.3 1692.25 1460.3 1680.66 1460.79 1674 1461.03L1674 1453.91 1683.37 1452.17C1689.81 1450.95 1693.48 1448 1693.48 1432.75L1693.48 1335.86C1693.48 1320.6 1689.81 1317.67 1683.37 1316.44L1674 1314.72 1674 1307.59C1680.15 1307.82 1690.03 1307.82 1699.92 1307.82 1710.75 1307.82 1722.36 1307.09 1736.9 1307.09ZM1732.47 1318.16C1725.8 1318.16 1718.17 1318.16 1712.48 1318.65L1712.48 1380.35C1718.17 1380.88 1721.85 1381.11 1730.25 1381.11 1752.21 1381.11 1765.53 1368.08 1765.53 1348.65 1765.53 1328.99 1753.21 1318.16 1732.47 1318.16Z" fill="#FFFFFF" fill-rule="evenodd"/></g></svg>