<svg width="84" height="96" xmlns="http://www.w3.org/2000/svg" xmlns:xlink="http://www.w3.org/1999/xlink" xml:space="preserve" overflow="hidden"><g transform="translate(-517 -523)"><path d="M526 529C521.031 529 517 533.031 517 538L517 604C517 608.969 521.031 613 526 613L592 613C596.969 613 601 608.969 601 604L601 538C601 533.031 596.969 529 592 529L526 529ZM577.975 541C579.03 541 579.987 541.122 580.836 541.371 581.675 541.618 582.428 541.959 583.092 542.395 583.746 542.827 584.313 543.335 584.78 543.911 585.26 544.488 585.645 545.105 585.948 545.767 586.065 545.977 586.032 546.145 585.845 546.263L583.238 547.334C583.018 547.452 582.862 547.392 582.74 547.159 582.155 546.076 581.656 545.364 580.836 544.846 580.006 544.33 579.239 544.086 577.975 544.086 576.601 544.086 575.987 544.359 575.127 544.975 574.273 545.579 573.647 546.339 573.278 547.497 573.204 547.706 573.137 547.965 573.058 548.27 572.993 548.579 572.94 548.958 572.907 549.401 572.873 549.845 572.842 550.394 572.813 551.042 572.794 551.689 572.785 552.475 572.785 553.386 572.785 554.302 572.794 555.089 572.813 555.736 572.842 556.381 572.873 556.93 572.907 557.374 572.94 557.822 572.993 558.199 573.058 558.51 573.137 558.81 573.204 559.069 573.278 559.28 573.647 560.433 574.175 561.064 574.952 561.57 575.719 562.083 576.601 562.452 577.975 562.452 579.196 562.452 580.313 562.104 581.042 561.574 581.764 561.045 582.363 560.345 582.632 559.388 582.749 558.985 582.9 558.484 583.003 557.87 583.097 557.256 583.097 556.607 583.097 555.71 583.097 555.568 583.018 555.496 582.886 555.496L578.711 555.496C578.476 555.496 578.361 555.381 578.361 555.146L578.361 552.754C578.361 552.516 578.476 552.401 578.711 552.401L586.372 552.401C586.612 552.401 586.725 552.516 586.725 552.754L586.725 554.798C586.725 555.882 586.725 556.887 586.612 557.818 586.504 558.748 586.358 559.553 586.173 560.14 585.588 561.98 584.66 563.289 583.238 564.265 581.812 565.248 579.973 565.777 577.975 565.777 575.923 565.777 574.194 565.306 572.785 564.368 571.372 563.418 570.362 562.025 569.746 560.162 569.629 559.81 569.538 559.448 569.469 559.069 569.397 558.693 569.332 558.254 569.274 557.748 569.214 557.237 569.176 556.638 569.152 555.93 569.128 555.228 569.118 554.37 569.118 553.386 569.118 552.398 569.128 551.552 569.152 550.847 569.176 550.14 569.214 549.533 569.274 549.027 569.332 548.524 569.397 548.083 569.469 547.706 569.538 547.328 569.629 546.968 569.747 546.615 570.363 544.752 571.372 543.352 572.785 542.412 574.194 541.472 575.923 541 577.975 541ZM549.536 555.59C557.706 555.59 563.937 559.313 563.937 567.336 563.937 572.779 559.64 578.227 553.838 579.584 557.35 585.818 561.573 591.333 564.728 594.766 566.584 596.773 569.161 598.566 571.739 598.566L571.739 600.425C570.953 600.787 569.665 601 568.449 601 564.294 601 561.002 599.355 558.849 596.773 556.49 594.054 552.334 588.177 547.966 580.372 545.669 580.372 544.165 580.372 542.446 580.229L542.446 592.188C542.446 596.631 543.453 597.564 545.386 597.845L549.112 598.353 549.112 600.425C547.321 600.355 543.166 600.213 539.943 600.213 536.574 600.213 533.208 600.355 531.275 600.425L531.275 598.353 533.994 597.845C535.865 597.49 536.929 596.631 536.929 592.188L536.929 563.97C536.929 559.525 535.865 558.671 533.994 558.311L531.275 557.812 531.275 555.734C533.061 555.803 535.929 555.803 538.799 555.803 541.945 555.803 545.314 555.59 549.536 555.59ZM548.249 558.812C546.314 558.812 544.098 558.812 542.446 558.956L542.446 576.927C544.098 577.083 545.168 577.148 547.604 577.148 553.982 577.148 557.847 573.352 557.847 567.693 557.847 561.968 554.269 558.812 548.249 558.812Z"/></g></svg>