<svg width="72" height="96" xmlns="http://www.w3.org/2000/svg" xmlns:xlink="http://www.w3.org/1999/xlink" xml:space="preserve" overflow="hidden"><g transform="translate(-516 -221)"><path d="M558.874 297.519C555.087 293.399 550.02 286.781 545.805 279.3 552.768 277.672 557.924 271.135 557.924 264.603 557.924 254.976 550.446 250.508 540.643 250.508 535.577 250.508 531.534 250.764 527.759 250.764 524.315 250.764 520.874 250.764 518.73 250.68L518.73 253.175 521.993 253.773C524.237 254.205 525.515 255.229 525.515 260.564L525.515 294.426C525.515 299.758 524.237 300.788 521.993 301.213L518.73 301.823 518.73 304.309C521.049 304.226 525.089 304.056 529.132 304.056 532.999 304.056 537.985 304.226 540.134 304.309L540.134 301.823 535.663 301.213C533.344 300.877 532.135 299.758 532.135 294.426L532.135 280.074C534.198 280.247 536.002 280.247 538.759 280.247 544.001 289.612 548.987 296.664 551.819 299.927 554.402 303.026 558.353 305 563.339 305 564.798 305 566.343 304.744 567.287 304.309L567.287 302.079C564.194 302.079 561.101 299.927 558.874 297.519ZM538.324 276.377C535.401 276.377 534.118 276.299 532.135 276.112L532.135 254.547C534.118 254.375 536.776 254.375 539.098 254.375 546.323 254.375 550.616 258.161 550.616 265.032 550.616 271.822 545.978 276.377 538.324 276.377ZM564.562 254.683C564.476 254.231 564.398 253.704 564.329 253.097 564.257 252.484 564.211 251.765 564.182 250.916 564.154 250.073 564.142 249.043 564.142 247.864 564.142 246.678 564.154 245.663 564.182 244.817 564.211 243.968 564.257 243.24 564.329 242.633 564.398 242.029 564.476 241.499 564.562 241.047 564.646 240.593 564.755 240.161 564.896 239.738 565.635 237.503 566.847 235.823 568.541 234.694 570.233 233.567 572.308 233 574.771 233 576.036 233 577.185 233.147 578.203 233.446 579.21 233.742 580.114 234.151 580.911 234.674 581.696 235.192 582.375 235.802 582.936 236.493 583.511 237.186 583.975 237.926 584.337 238.72 584.478 238.973 584.438 239.174 584.214 239.315L581.086 240.601C580.821 240.742 580.634 240.671 580.487 240.391 579.786 239.091 579.187 238.236 578.203 237.615 577.208 236.996 576.287 236.703 574.77 236.703 573.122 236.703 572.385 237.031 571.352 237.77 570.328 238.495 569.577 239.407 569.134 240.797 569.045 241.047 568.964 241.358 568.869 241.724 568.792 242.095 568.728 242.549 568.688 243.082 568.648 243.614 568.61 244.273 568.576 245.05 568.553 245.827 568.541 246.77 568.541 247.864 568.541 248.963 568.553 249.906 568.576 250.683 568.61 251.457 568.648 252.116 568.688 252.648 568.728 253.186 568.792 253.638 568.869 254.012 568.964 254.372 569.045 254.683 569.134 254.936 569.577 256.32 570.21 257.076 571.142 257.684 572.063 258.299 573.122 258.743 574.77 258.743 576.235 258.743 577.576 258.325 578.45 257.689 579.317 257.054 580.036 256.214 580.358 255.065 580.499 254.582 580.68 253.98 580.804 253.244 580.916 252.507 580.916 251.728 580.916 250.652 580.916 250.482 580.821 250.395 580.663 250.395L575.654 250.395C575.372 250.395 575.234 250.257 575.234 249.976L575.234 247.104C575.234 246.819 575.372 246.681 575.654 246.681L584.846 246.681C585.134 246.681 585.27 246.819 585.27 247.104L585.27 249.558C585.27 250.859 585.27 252.065 585.134 253.181 585.005 254.297 584.829 255.264 584.608 255.969 583.906 258.176 582.792 259.747 581.086 260.918 579.374 262.097 577.167 262.733 574.77 262.733 572.308 262.733 570.233 262.166 568.541 261.041 566.847 259.902 565.635 258.23 564.896 255.995 564.755 255.572 564.645 255.137 564.562 254.683Z"/></g></svg>