<svg width="84" height="86" xmlns="http://www.w3.org/2000/svg" xmlns:xlink="http://www.w3.org/1999/xlink" xml:space="preserve" overflow="hidden"><defs><clipPath id="clip0"><rect x="446" y="406" width="84" height="86"/></clipPath></defs><g clip-path="url(#clip0)" transform="translate(-446 -406)"><path d="M8.99682 5.99788C4.02983 5.99788 0 10.0277 0 14.9947L0 80.9714C0 85.9384 4.02983 89.9682 8.99682 89.9682L74.9735 89.9682C79.9405 89.9682 83.9703 85.9384 83.9703 80.9714L83.9703 14.9947C83.9703 10.0277 79.9405 5.99788 74.9735 5.99788L8.99682 5.99788ZM60.9536 17.9936C62.0083 17.9936 62.965 18.1157 63.8135 18.3649 64.6525 18.6118 65.4046 18.9524 66.0685 19.3883 66.7229 19.8198 67.2889 20.3279 67.7562 20.9032 68.2354 21.4808 68.6212 22.0969 68.9233 22.7586 69.0407 22.9694 69.0075 23.1372 68.8204 23.2545L66.2149 24.3257C65.9943 24.4434 65.8389 24.3834 65.7163 24.1508 65.1317 23.0675 64.633 22.3558 63.8135 21.8383 62.9841 21.3228 62.2169 21.0782 60.9536 21.0782 59.5803 21.0782 58.9667 21.3513 58.1063 21.9674 57.253 22.5715 56.6275 23.3312 56.2582 24.4886 56.1842 24.6974 56.1169 24.9564 56.038 25.2606 55.9732 25.5699 55.9205 25.9487 55.8871 26.392 55.8534 26.8355 55.8221 27.3844 55.7934 28.0317 55.7743 28.6789 55.7649 29.4648 55.7649 30.3757 55.7649 31.2911 55.7743 32.0772 55.7934 32.7244 55.8221 33.3692 55.8536 33.918 55.8871 34.3615 55.9205 34.8096 55.9732 35.186 56.038 35.4979 56.1169 35.7974 56.1842 36.0559 56.2582 36.2669 56.6275 37.4198 57.1547 38.0502 57.9313 38.5561 58.6983 39.0691 59.5803 39.4383 60.9536 39.4383 62.1738 39.4383 63.2908 39.0906 64.0193 38.5607 64.7407 38.0312 65.34 37.3314 65.6084 36.3749 65.7261 35.9723 65.877 35.4711 65.9801 34.8576 66.0734 34.244 66.0738 33.5947 66.0738 32.6984 66.0738 32.5569 65.9943 32.4845 65.8625 32.4845L61.6895 32.4845C61.4547 32.4845 61.3396 32.3698 61.3396 32.135L61.3396 29.7431C61.3396 29.5056 61.4547 29.3905 61.6895 29.3905L69.3475 29.3905C69.5874 29.3905 69.7001 29.5056 69.7001 29.7431L69.7001 31.7873C69.7001 32.8706 69.7001 33.8753 69.5874 34.8051 69.4794 35.7352 69.3334 36.5402 69.1488 37.1273 68.5638 38.9658 67.6364 40.2746 66.2149 41.25 64.7887 42.2328 62.9504 42.7623 60.9536 42.7623 58.902 42.7623 57.174 42.2907 55.7649 41.3533 54.3532 40.4042 53.3436 39.0111 52.7277 37.1488 52.6102 36.7966 52.5195 36.4349 52.45 36.0561 52.378 35.6799 52.313 35.2411 52.2556 34.7352 52.1958 34.2248 52.1574 33.6258 52.1338 32.9188 52.1096 32.2167 52.1 31.3584 52.1 30.3757 52.1 29.3879 52.1098 28.5422 52.1338 27.8377 52.1576 27.1305 52.1958 26.5237 52.2556 26.0181 52.313 25.5148 52.378 25.0739 52.45 24.6978 52.5195 24.319 52.6106 23.9593 52.7281 23.6071 53.344 21.7448 54.3532 20.345 55.7649 19.4052 57.174 18.4657 58.902 17.9936 60.9536 17.9936ZM32.5248 32.5782C40.6911 32.5782 46.9203 36.3005 46.9203 44.3204 46.9203 49.7612 42.6251 55.2071 36.8249 56.5636 40.3361 62.7956 44.5569 68.3085 47.7111 71.7406 49.5663 73.7467 52.1431 75.5396 54.7196 75.5396L54.7196 77.3974C53.9339 77.7591 52.6466 77.9724 51.4311 77.9724 47.2775 77.9724 43.9866 76.3281 41.8343 73.7467 39.4756 71.0286 35.3219 65.1538 30.9547 57.3521 28.6584 57.3521 27.1558 57.3521 25.4372 57.2083L25.4372 69.1638C25.4372 73.6052 26.4441 74.5377 28.3758 74.8183L32.1007 75.3261 32.1007 77.3974C30.3101 77.3279 26.1564 77.1862 22.935 77.1862 19.5673 77.1862 16.202 77.3279 14.2702 77.3974L14.2702 75.3261 16.9884 74.8183C18.8579 74.4637 19.9221 73.6052 19.9221 69.1638L19.9221 40.9554C19.9221 36.5117 18.8579 35.6583 16.9884 35.2986L14.2702 34.8001 14.2702 32.7222C16.0558 32.7917 18.9226 32.7913 21.7918 32.7913 24.9362 32.7913 28.304 32.5782 32.5248 32.5782ZM31.2377 35.7995C29.3034 35.7995 27.0887 35.7995 25.4372 35.9434L25.4372 53.908C27.0887 54.0638 28.1578 54.1284 30.5931 54.1284 36.9687 54.1284 40.8324 50.3342 40.8324 44.6776 40.8324 38.9542 37.2562 35.7995 31.2377 35.7995Z" transform="matrix(1.00035 0 0 1 446 400.572)"/></g></svg>