<svg width="330" height="330" xmlns="http://www.w3.org/2000/svg" xmlns:xlink="http://www.w3.org/1999/xlink" xml:space="preserve" overflow="hidden"><g transform="translate(-1732 -761)"><g><g><g><path d="M147.378 263.034C134.363 248.871 116.945 226.123 102.456 200.407 126.39 194.81 144.114 172.338 144.114 149.887 144.114 116.793 118.41 101.433 84.712 101.433 67.295 101.433 53.3985 102.313 40.4227 102.313 28.5832 102.313 16.754 102.313 9.38585 102.026L9.38585 110.602 20.6014 112.659C28.3157 114.142 32.7073 117.664 32.7073 136L32.7073 252.402C32.7073 270.73 28.316 274.27 20.6014 275.734L9.38585 277.83 9.38585 286.376C17.3574 286.089 31.2437 285.505 45.1403 285.505 58.4331 285.505 75.5734 286.089 82.9617 286.376L82.9617 277.83 67.5916 275.734C59.6209 274.576 55.4655 270.73 55.4655 252.402L55.4655 203.068C62.557 203.662 68.7583 203.662 78.2339 203.662 96.2546 235.855 113.394 260.096 123.127 271.313 132.008 281.964 145.588 288.75 162.728 288.75 167.743 288.75 173.055 287.869 176.298 286.376L176.298 278.71C165.666 278.71 155.034 271.313 147.378 263.034ZM76.7404 190.359C66.6916 190.359 62.2808 190.091 55.4658 189.449L55.4658 115.319C62.2808 114.726 71.4191 114.726 79.4009 114.726 104.236 114.726 118.993 127.742 118.993 151.36 118.993 174.702 103.049 190.359 76.7404 190.359ZM166.932 115.784C166.635 114.232 166.368 112.422 166.131 110.334 165.884 108.228 165.725 105.755 165.627 102.838 165.528 99.9401 165.488 96.3995 165.488 92.3441 165.488 88.2687 165.528 84.7774 165.627 81.8699 165.725 78.9521 165.884 76.4494 166.131 74.363 166.368 72.2857 166.635 70.4657 166.932 68.9132 167.219 67.3505 167.595 65.8667 168.08 64.4133 170.621 56.7284 174.786 50.9524 180.611 47.0745 186.427 43.1974 193.558 41.25 202.024 41.25 206.376 41.25 210.322 41.7543 213.823 42.7823 217.285 43.8011 220.39 45.206 223.13 47.0055 225.83 48.7859 228.164 50.8826 230.093 53.2565 232.071 55.6395 233.663 58.1818 234.909 60.9121 235.394 61.7819 235.256 62.4748 234.484 62.9589L223.733 67.3796C222.823 67.8648 222.181 67.6174 221.675 66.6573 219.263 62.1868 217.205 59.2499 213.823 57.1139 210.401 54.987 207.236 53.9782 202.023 53.9782 196.356 53.9782 193.824 55.1053 190.274 57.6476 186.752 60.14 184.171 63.2757 182.648 68.052 182.342 68.9129 182.064 69.9814 181.738 71.2373 181.471 72.5134 181.253 74.0761 181.115 75.9053 180.976 77.7353 180.848 80 180.729 82.6708 180.651 85.3415 180.611 88.5855 180.611 92.3438 180.611 96.1215 180.651 99.3655 180.729 102.036 180.848 104.697 180.977 106.962 181.115 108.791 181.253 110.641 181.471 112.193 181.738 113.48 182.064 114.716 182.342 115.784 182.648 116.655 184.171 121.412 186.347 124.013 189.552 126.1 192.717 128.217 196.356 129.74 202.023 129.74 207.058 129.74 211.667 128.306 214.673 126.12 217.651 123.934 220.123 121.046 221.231 117.1 221.716 115.438 222.339 113.37 222.764 110.839 223.15 108.307 223.15 105.627 223.15 101.928 223.15 101.344 222.823 101.047 222.279 101.047L205.06 101.047C204.09 101.047 203.615 100.573 203.615 99.6037L203.615 89.7329C203.615 88.7536 204.09 88.2784 205.06 88.2784L236.66 88.2784C237.649 88.2784 238.114 88.7534 238.114 89.7329L238.114 98.1694C238.114 102.64 238.114 106.784 237.649 110.622 237.204 114.459 236.601 117.782 235.839 120.205 233.426 127.792 229.599 133.192 223.734 137.217 217.848 141.272 210.262 143.457 202.023 143.457 193.557 143.457 186.426 141.51 180.611 137.642 174.785 133.726 170.621 127.979 168.08 120.294 167.595 118.841 167.219 117.347 166.932 115.784Z" transform="matrix(1.00202 0 0 1 1773 761)"/></g></g></g></g></svg>