<svg width="286" height="286" xmlns="http://www.w3.org/2000/svg" xmlns:xlink="http://www.w3.org/1999/xlink" xml:space="preserve" overflow="hidden"><g transform="translate(-1627 -79)"><path d="M1834.86 119C1838.5 119 1841.79 119.42 1844.72 120.275 1847.61 121.123 1850.2 122.293 1852.49 123.79 1854.74 125.272 1856.69 127.017 1858.3 128.993 1859.95 130.977 1861.28 133.093 1862.32 135.365 1862.73 136.09 1862.61 136.666 1861.97 137.069L1852.99 140.748C1852.23 141.152 1851.69 140.946 1851.27 140.147 1849.26 136.426 1847.54 133.982 1844.72 132.205 1841.86 130.434 1839.21 129.594 1834.86 129.594 1830.13 129.594 1828.01 130.532 1825.05 132.648 1822.11 134.723 1819.95 137.332 1818.68 141.307 1818.43 142.025 1818.2 142.914 1817.92 143.959 1817.7 145.021 1817.52 146.322 1817.4 147.844 1817.29 149.368 1817.18 151.253 1817.08 153.476 1817.01 155.699 1816.98 158.398 1816.98 161.527 1816.98 164.671 1817.01 167.371 1817.08 169.594 1817.18 171.808 1817.29 173.693 1817.4 175.216 1817.52 176.755 1817.7 178.048 1817.92 179.119 1818.2 180.148 1818.43 181.036 1818.68 181.761 1819.95 185.72 1821.77 187.885 1824.45 189.623 1827.09 191.384 1830.13 192.653 1834.86 192.653 1839.07 192.653 1842.91 191.459 1845.42 189.639 1847.91 187.82 1849.98 185.416 1850.9 182.131 1851.31 180.748 1851.83 179.027 1852.18 176.92 1852.5 174.812 1852.5 172.583 1852.5 169.504 1852.5 169.018 1852.23 168.77 1851.78 168.77L1837.4 168.77C1836.59 168.77 1836.19 168.376 1836.19 167.569L1836.19 159.354C1836.19 158.538 1836.59 158.143 1837.4 158.143L1863.78 158.143C1864.61 158.143 1865 158.538 1865 159.354L1865 166.375C1865 170.096 1865 173.546 1864.61 176.74 1864.24 179.934 1863.74 182.699 1863.1 184.715 1861.08 191.03 1857.89 195.525 1852.99 198.875 1848.08 202.25 1841.74 204.069 1834.86 204.069 1827.79 204.069 1821.84 202.449 1816.98 199.23 1812.12 195.97 1808.64 191.185 1806.52 184.789 1806.11 183.58 1805.8 182.337 1805.56 181.036 1805.31 179.744 1805.09 178.237 1804.89 176.5 1804.68 174.747 1804.55 172.689 1804.47 170.261 1804.39 167.85 1804.35 164.902 1804.35 161.527 1804.35 158.134 1804.39 155.229 1804.47 152.81 1804.55 150.381 1804.68 148.297 1804.89 146.56 1805.09 144.832 1805.31 143.318 1805.56 142.026 1805.8 140.725 1806.11 139.489 1806.52 138.28 1808.64 131.883 1812.12 127.076 1816.98 123.848 1821.84 120.621 1827.79 119 1834.86 119ZM1736.9 169.092C1765.04 169.092 1786.51 181.876 1786.51 209.421 1786.51 228.107 1771.7 246.811 1751.72 251.47 1763.82 272.874 1778.36 291.809 1789.23 303.597 1795.62 310.487 1804.5 316.644 1813.38 316.644L1813.38 323.025C1810.67 324.267 1806.24 325 1802.05 325 1787.74 325 1776.4 319.352 1768.98 310.487 1760.85 301.151 1746.54 280.974 1731.49 254.179 1723.58 254.179 1718.4 254.179 1712.48 253.685L1712.48 294.746C1712.48 310 1715.95 313.203 1722.6 314.167L1735.44 315.911 1735.44 323.025C1729.27 322.786 1714.96 322.299 1703.86 322.299 1692.25 322.299 1680.66 322.786 1674 323.025L1674 315.911 1683.37 314.167C1689.81 312.949 1693.48 310 1693.48 294.746L1693.48 197.863C1693.48 182.601 1689.81 179.67 1683.37 178.435L1674 176.722 1674 169.586C1680.15 169.825 1690.03 169.823 1699.92 169.823 1710.75 169.823 1722.36 169.092 1736.9 169.092ZM1732.47 180.155C1725.8 180.155 1718.17 180.155 1712.48 180.649L1712.48 242.349C1718.17 242.884 1721.85 243.106 1730.25 243.106 1752.21 243.106 1765.53 230.075 1765.53 210.648 1765.53 190.99 1753.21 180.155 1732.47 180.155Z" fill-rule="evenodd"/></g></svg>