<svg width="96" height="128" xmlns="http://www.w3.org/2000/svg" xmlns:xlink="http://www.w3.org/1999/xlink" xml:space="preserve" overflow="hidden"><g transform="translate(-510 -392)"><path d="M567.165 494.025C562.117 488.532 555.361 479.708 549.74 469.734 559.024 467.563 565.899 458.846 565.899 450.138 565.899 437.301 555.929 431.344 542.858 431.344 536.102 431.344 530.712 431.685 525.679 431.685 521.087 431.685 516.499 431.685 513.641 431.574L513.641 434.9 517.991 435.698C520.983 436.273 522.686 437.639 522.686 444.752L522.686 489.901C522.686 497.01 520.983 498.384 517.991 498.951L513.641 499.764 513.641 503.079C516.733 502.968 522.119 502.741 527.509 502.741 532.665 502.741 539.313 502.968 542.179 503.079L542.179 499.764 536.217 498.951C533.126 498.502 531.514 497.01 531.514 489.901L531.514 470.766C534.265 470.996 536.67 470.996 540.345 470.996 547.335 483.483 553.983 492.886 557.758 497.237 561.203 501.368 566.471 504 573.119 504 575.064 504 577.125 503.658 578.382 503.079L578.382 500.106C574.258 500.106 570.134 497.237 567.165 494.025ZM539.766 465.836C535.868 465.836 534.157 465.732 531.514 465.483L531.514 436.73C534.157 436.5 537.702 436.5 540.798 436.5 550.431 436.5 556.155 441.548 556.155 450.709 556.155 459.763 549.971 465.836 539.766 465.836ZM574.75 436.91C574.634 436.308 574.531 435.606 574.439 434.796 574.343 433.979 574.281 433.02 574.243 431.889 574.205 430.765 574.189 429.391 574.189 427.818 574.189 426.238 574.205 424.883 574.243 423.756 574.281 422.624 574.343 421.653 574.439 420.844 574.531 420.038 574.634 419.332 574.75 418.73 574.861 418.124 575.006 417.548 575.195 416.985 576.18 414.004 577.796 411.763 580.055 410.259 582.311 408.755 585.077 408 588.361 408 590.049 408 591.58 408.196 592.938 408.594 594.28 408.99 595.485 409.534 596.547 410.232 597.595 410.923 598.5 411.736 599.248 412.657 600.015 413.581 600.633 414.567 601.116 415.626 601.304 415.964 601.251 416.233 600.951 416.42L596.781 418.135C596.428 418.323 596.179 418.227 595.983 417.855 595.047 416.121 594.249 414.982 592.937 414.153 591.61 413.328 590.382 412.937 588.361 412.937 586.162 412.937 585.18 413.374 583.803 414.36 582.437 415.327 581.436 416.543 580.845 418.396 580.727 418.73 580.619 419.144 580.492 419.631 580.389 420.126 580.304 420.733 580.251 421.442 580.197 422.152 580.147 423.03 580.101 424.066 580.071 425.102 580.055 426.36 580.055 427.818 580.055 429.283 580.071 430.542 580.101 431.578 580.147 432.61 580.197 433.488 580.251 434.198 580.304 434.915 580.389 435.517 580.492 436.016 580.619 436.496 580.727 436.91 580.845 437.248 581.436 439.093 582.28 440.102 583.523 440.912 584.751 441.733 586.162 442.323 588.361 442.323 590.313 442.323 592.101 441.767 593.267 440.919 594.422 440.071 595.381 438.951 595.811 437.42 595.999 436.776 596.241 435.974 596.406 434.992 596.555 434.01 596.555 432.97 596.555 431.536 596.555 431.309 596.428 431.194 596.217 431.194L589.538 431.194C589.162 431.194 588.978 431.01 588.978 430.634L588.978 426.805C588.978 426.426 589.162 426.241 589.538 426.241L601.795 426.241C602.179 426.241 602.359 426.426 602.359 426.805L602.359 430.078C602.359 431.812 602.359 433.419 602.179 434.908 602.006 436.396 601.773 437.685 601.477 438.625 600.541 441.568 599.056 443.662 596.781 445.223 594.499 446.796 591.556 447.644 588.361 447.644 585.077 447.644 582.311 446.889 580.055 445.388 577.796 443.869 576.18 441.64 575.195 438.659 575.006 438.096 574.861 437.516 574.749 436.91Z"/></g></svg>