<svg width="286" height="286" xmlns="http://www.w3.org/2000/svg" xmlns:xlink="http://www.w3.org/1999/xlink" xml:space="preserve" overflow="hidden"><g transform="translate(-2025 -1243)"><path d="M2124.66 1339C2107.65 1339 2097.28 1350.11 2097.28 1364.28 2097.28 1378.44 2109.72 1384.56 2121.06 1391.5 2129.5 1396.64 2138.35 1400.11 2138.35 1409.28 2138.35 1418.17 2130.47 1424.56 2121.06 1424.56 2111.8 1424.56 2105.71 1422.47 2098.66 1418.17L2097 1429.14C2104.19 1432.47 2111.52 1434 2121.62 1434 2135.72 1434 2150.52 1425.25 2150.52 1407.89 2150.52 1394.7 2138.9 1388.72 2127.7 1382.06 2118.99 1376.78 2109.72 1373.17 2109.72 1363.44 2109.72 1356.22 2114.98 1348.31 2125.35 1348.31 2134.34 1348.31 2140.56 1349.69 2148.45 1354.42L2149.14 1343.45C2141.81 1340.39 2136.55 1339 2124.66 1339ZM2211.2 1339C2184.37 1339 2164.05 1359.97 2164.05 1386.64 2164.05 1417.06 2188.25 1433.72 2210.79 1433.72 2222.13 1433.72 2231.53 1432.19 2239 1428.44L2238.17 1417.89C2229.73 1422.47 2220.74 1424.28 2211.76 1424.28 2192.12 1424.28 2176.49 1407.75 2176.49 1385.81 2176.49 1362.61 2191.84 1348.31 2209.82 1348.31 2221.16 1348.31 2229.87 1350.11 2238.17 1354.7L2239 1344.28C2231.39 1340.67 2225.17 1339 2211.2 1339Z" fill="#FFFFFF" fill-rule="evenodd"/></g></svg>