<svg width="96" height="96" xmlns="http://www.w3.org/2000/svg" xmlns:xlink="http://www.w3.org/1999/xlink" xml:space="preserve" overflow="hidden"><g transform="translate(-640 -232)"><path d="M652 244 652 316 724 316 724 244ZM673.903 262.736C678.069 262.736 679.911 263.221 682.478 264.287L682.236 268.114C679.474 266.467 677.294 265.983 674.145 265.983 670.511 265.983 668.67 268.744 668.67 271.263 668.67 274.655 671.916 275.914 674.969 277.755 678.893 280.081 682.963 282.164 682.963 286.767 682.963 292.823 677.778 295.875 672.837 295.875 669.3 295.875 666.732 295.342 664.213 294.18L664.795 290.352C667.266 291.854 669.397 292.581 672.643 292.581 675.938 292.581 678.699 290.352 678.699 287.252 678.699 284.054 675.599 282.842 672.643 281.05 668.67 278.627 664.31 276.495 664.31 271.554 664.31 266.612 667.944 262.736 673.903 262.736ZM704.222 262.736C709.116 262.736 711.296 263.318 713.961 264.577L713.67 268.211C710.763 266.612 707.711 265.983 703.738 265.983 697.44 265.983 692.062 270.972 692.062 279.063 692.062 286.718 697.537 292.484 704.416 292.484 707.565 292.484 710.715 291.854 713.67 290.255L713.961 293.937C711.344 295.245 708.05 295.779 704.077 295.779 696.18 295.779 687.702 289.964 687.702 279.354 687.702 270.052 694.823 262.736 704.222 262.736Z" fill="#E9711C" fill-opacity="0.999"/></g></svg>