<svg width="96" height="96" xmlns="http://www.w3.org/2000/svg" xmlns:xlink="http://www.w3.org/1999/xlink" xml:space="preserve" overflow="hidden"><g transform="translate(-640 -419)"><path d="M652 431 652 503 724 503 724 431ZM673.903 449.736C678.069 449.736 679.911 450.221 682.478 451.287L682.236 455.114C679.474 453.467 677.294 452.983 674.145 452.983 670.511 452.983 668.67 455.744 668.67 458.263 668.67 461.655 671.916 462.914 674.969 464.755 678.893 467.081 682.963 469.164 682.963 473.767 682.963 479.823 677.778 482.875 672.837 482.875 669.3 482.875 666.732 482.342 664.213 481.18L664.795 477.352C667.266 478.854 669.397 479.581 672.643 479.581 675.938 479.581 678.699 477.352 678.699 474.252 678.699 471.054 675.599 469.842 672.643 468.05 668.67 465.627 664.31 463.495 664.31 458.554 664.31 453.612 667.944 449.736 673.903 449.736ZM704.222 449.736C709.116 449.736 711.296 450.318 713.961 451.577L713.67 455.211C710.763 453.612 707.711 452.983 703.738 452.983 697.44 452.983 692.062 457.972 692.062 466.063 692.062 473.718 697.537 479.484 704.416 479.484 707.565 479.484 710.715 478.854 713.67 477.255L713.961 480.937C711.344 482.245 708.05 482.779 704.077 482.779 696.18 482.779 687.702 476.964 687.702 466.354 687.702 457.052 694.823 449.736 704.222 449.736Z" fill="#E9711C" fill-opacity="0.999"/></g></svg>