<svg width="286" height="286" xmlns="http://www.w3.org/2000/svg" xmlns:xlink="http://www.w3.org/1999/xlink" xml:space="preserve" overflow="hidden"><g transform="translate(-2025 -82)"><path d="M2071 160.334C2071 142.476 2085.48 128 2103.33 128L2232.67 128C2250.52 128 2265 142.476 2265 160.334L2265 289.666C2265 307.524 2250.52 322 2232.67 322L2103.33 322C2085.48 322 2071 307.524 2071 289.666Z" fill="#E9711C" fill-rule="evenodd"/><path d="M2123.39 169C2104.7 169 2093.31 182.685 2093.31 200.131 2093.31 217.578 2106.98 225.106 2119.44 233.658 2128.7 239.987 2138.43 244.264 2138.43 255.553 2138.43 266.501 2129.77 274.37 2119.44 274.37 2109.26 274.37 2102.57 271.801 2094.82 266.499L2093 280.013C2100.9 284.117 2108.95 286 2120.04 286 2135.54 286 2151.8 275.224 2151.8 253.843 2151.8 237.593 2139.03 230.236 2126.73 222.026 2117.16 215.527 2106.98 211.08 2106.98 199.106 2106.98 190.212 2112.75 180.463 2124.15 180.463 2134.02 180.463 2140.86 182.171 2149.52 187.986L2150.28 174.476C2142.22 170.713 2136.45 169 2123.39 169ZM2218.46 169C2188.99 169 2166.66 194.829 2166.66 227.671 2166.66 265.131 2193.24 285.658 2218.01 285.658 2230.47 285.658 2240.8 283.776 2249 279.157L2248.09 266.157C2238.82 271.802 2228.95 274.027 2219.07 274.027 2197.5 274.027 2180.33 253.671 2180.33 226.645 2180.33 198.08 2197.19 180.463 2216.94 180.463 2229.4 180.463 2238.97 182.686 2248.09 188.331L2249 175.501C2240.64 171.054 2233.81 169 2218.46 169Z" fill="#FFFFFF" fill-rule="evenodd"/></g></svg>