<svg width="84" height="96" xmlns="http://www.w3.org/2000/svg" xmlns:xlink="http://www.w3.org/1999/xlink" xml:space="preserve" overflow="hidden"><g transform="translate(-651 -523)"><path d="M660 529C655.031 529 651 533.031 651 538L651 604C651 608.969 655.031 613 660 613L726 613C730.969 613 735 608.969 735 604L735 538C735 533.031 730.969 529 726 529L660 529ZM663 541 723 541 723 601 663 601 663 541ZM681.252 556.613C676.286 556.613 673.259 559.843 673.259 563.961 673.259 568.08 676.892 569.856 680.203 571.875 682.666 573.369 685.249 574.378 685.249 577.043 685.249 579.627 682.948 581.484 680.203 581.484 677.498 581.484 675.721 580.878 673.662 579.626L673.177 582.816C675.277 583.785 677.417 584.229 680.364 584.229 684.482 584.229 688.802 581.686 688.802 576.639 688.802 572.804 685.411 571.067 682.14 569.129 679.597 567.595 676.892 566.546 676.892 563.719 676.892 561.62 678.426 559.319 681.454 559.319 684.078 559.319 685.895 559.722 688.197 561.095L688.399 557.906C686.259 557.018 684.724 556.613 681.252 556.613ZM706.519 556.613C698.686 556.613 692.751 562.71 692.751 570.462 692.751 579.304 699.817 584.149 706.398 584.149 709.708 584.149 712.454 583.704 714.634 582.614L714.392 579.546C711.929 580.878 709.305 581.403 706.68 581.403 700.947 581.403 696.385 576.599 696.385 570.22 696.385 563.477 700.866 559.319 706.115 559.319 709.425 559.319 711.969 559.844 714.392 561.176L714.634 558.148C712.413 557.098 710.596 556.613 706.519 556.613Z"/></g></svg>