<svg width="285" height="286" xmlns="http://www.w3.org/2000/svg" xmlns:xlink="http://www.w3.org/1999/xlink" xml:space="preserve" overflow="hidden"><defs><clipPath id="clip0"><rect x="414" y="1782" width="285" height="286"/></clipPath></defs><g clip-path="url(#clip0)" transform="translate(-414 -1782)"><path d="M466.212 1838.33C450.313 1838.33 437.423 1851.27 437.423 1867.22L437.423 1982.78C437.423 1998.73 450.313 2011.67 466.212 2011.67L646.788 2011.67C662.687 2011.67 675.576 1998.73 675.576 1982.78L675.576 1867.22C675.576 1851.27 662.687 1838.33 646.788 1838.33ZM461.501 1782 651.499 1782C677.733 1782 699 1803.34 699 1829.67L699 2020.33C699 2046.66 677.733 2068 651.499 2068L461.501 2068C435.267 2068 414 2046.66 414 2020.33L414 1829.67C414 1803.34 435.267 1782 461.501 1782Z" fill-rule="evenodd"/><path d="M458 1864 458 1991 656 1991 656 1864ZM562.528 1945.05C559.47 1947.8 554.53 1947.8 551.472 1945.05L466.938 1868.74C466.928 1868.73 466.929 1868.72 466.939 1868.71 466.944 1868.71 466.95 1868.7 466.957 1868.7L647.043 1868.7C647.057 1868.7 647.069 1868.71 647.069 1868.73 647.068 1868.73 647.066 1868.74 647.061 1868.74ZM524.658 1927.5 463.255 1982.93C463.245 1982.94 463.228 1982.94 463.218 1982.93 463.213 1982.93 463.21 1982.92 463.21 1982.91L463.21 1872.09C463.211 1872.07 463.222 1872.06 463.237 1872.06 463.243 1872.06 463.25 1872.07 463.255 1872.07ZM528.342 1930.83 547.788 1948.38C552.874 1952.97 561.122 1952.97 566.21 1948.38 566.211 1948.38 566.211 1948.38 566.212 1948.38L585.658 1930.83 647.061 1986.26C647.071 1986.27 647.071 1986.28 647.061 1986.29 647.056 1986.29 647.05 1986.3 647.043 1986.3L466.957 1986.3C466.943 1986.3 466.931 1986.29 466.931 1986.27 466.931 1986.27 466.934 1986.26 466.938 1986.26ZM589.342 1927.5 650.745 1872.07C650.755 1872.06 650.772 1872.06 650.782 1872.07 650.787 1872.07 650.789 1872.08 650.789 1872.09L650.789 1982.91C650.789 1982.93 650.777 1982.94 650.763 1982.94 650.756 1982.94 650.75 1982.94 650.745 1982.93Z" fill-rule="evenodd"/></g></svg>