<svg width="84" height="85" xmlns="http://www.w3.org/2000/svg" xmlns:xlink="http://www.w3.org/1999/xlink" xml:space="preserve" overflow="hidden"><g transform="translate(-247 -405)"><path d="M8.98282 5.98855C4.02355 5.98855 0 10.0121 0 14.9714L0 80.8454C0 85.8046 4.02355 89.8282 8.98282 89.8282L74.8568 89.8282C79.8161 89.8282 83.8397 85.8046 83.8397 80.8454L83.8397 14.9714C83.8397 10.0121 79.8161 5.98855 74.8568 5.98855L8.98282 5.98855ZM35.3128 17.9656 68.6692 17.9656 65.5868 20.3721 65.5868 24.6191C66.7313 24.766 66.6102 25.4538 66.6102 26.2766L66.6102 46.3426C66.6102 47.2717 65.8501 48.0323 64.9207 48.0323L64.2987 48.0323C63.3693 48.0323 62.6089 47.2717 62.6089 46.3426L62.6089 26.2766C62.6089 25.4517 62.4892 24.7634 63.6422 24.6184L63.6422 21.9486 54.7671 29.2271C54.8697 29.4172 54.967 29.5391 55.0596 29.6985 55.8395 31.0792 56.2366 32.7957 56.2366 34.8936 56.2366 36.5017 55.9686 37.9468 55.4251 39.2224 54.8841 40.4981 54.2261 41.5399 53.4586 42.3428 52.6912 43.1482 51.9213 43.8841 51.1512 44.5467 50.3815 45.2107 49.7235 45.903 49.1847 46.6218 48.6418 47.3382 48.3712 48.079 48.3712 48.8467 48.3712 49.6155 48.7223 50.3964 49.4216 51.1834 50.1185 51.9729 50.9758 52.7378 51.9898 53.4934 53.0058 54.2439 54.0195 55.0772 55.0332 55.9836 56.0492 56.8886 56.9022 58.0535 57.5992 59.4683 58.3011 60.888 58.6518 62.451 58.6518 64.169 58.6518 66.4351 58.0741 68.4818 56.9215 70.3033 55.7665 72.1173 54.2605 73.565 52.4112 74.6263 50.5568 75.6947 48.5733 76.4988 46.4584 77.0423 44.3385 77.5807 42.2355 77.8511 40.1351 77.8511 38.8093 77.8511 37.4715 77.7487 36.1261 77.5393 34.7764 77.3297 33.4241 76.9596 32.0619 76.438 30.6975 75.9129 29.4885 75.2682 28.4409 74.4936 27.3907 73.7272 26.5452 72.7378 25.8969 71.5328 25.2487 70.328 24.9268 68.9731 24.9268 67.4685 24.9268 65.6833 25.424 64.0277 26.4207 62.4839 27.4173 60.9512 28.7379 59.6719 30.3803 58.6584 33.246 56.8759 37.7417 55.7743 43.8603 55.3579 42.4618 53.6095 41.76 51.9632 41.76 50.4232 41.76 49.5468 41.9887 48.6079 42.4421 47.594 41.7112 47.6963 40.9583 47.7538 40.1906 47.7538 36.9039 47.7538 34.128 46.6852 31.874 44.5336 29.6201 42.3854 28.4946 39.6968 28.4946 36.4459 28.4946 36.1061 28.5044 35.8061 28.5285 35.4748L15.1706 35.4748 35.3128 17.9656ZM41.1851 25.1395C39.0893 25.1395 37.4812 25.8935 36.3604 27.3984 35.2398 28.8992 34.6791 30.7173 34.6791 32.853 34.6791 34.672 34.986 36.524 35.6 38.4124 36.2118 40.2997 37.2136 41.9848 38.6171 43.4699 40.0157 44.9588 41.6434 45.7018 43.4929 45.7018 45.5545 45.7018 47.1652 45.0114 48.3203 43.6297 49.4703 42.2503 50.0478 40.5093 50.0478 38.4124 50.0478 36.6261 49.7433 34.7562 49.1317 32.8006 48.5224 30.8427 47.5064 29.0761 46.088 27.5033 44.6747 25.9254 43.0371 25.1395 41.1851 25.1395ZM44.6506 57.343C43.1469 57.343 41.6677 57.4762 40.2155 57.7418 38.7631 58 37.3304 58.4361 35.9171 59.0514 34.4987 59.6633 33.3536 60.5625 32.4811 61.7518 31.604 62.9394 31.1676 64.3383 31.1676 65.9479 31.1676 67.4816 31.5529 68.8498 32.323 70.0413 33.0907 71.2253 34.1042 72.153 35.3641 72.817 36.6239 73.4821 37.9446 73.984 39.3236 74.3141 40.7053 74.6418 42.1115 74.8127 43.5442 74.8127 46.3779 74.8127 48.817 74.1743 50.8639 72.8984 52.9058 71.6228 53.9295 69.653 53.9295 66.9942 53.9295 66.4351 53.8514 65.8841 53.6978 65.347 53.537 64.8036 53.3789 64.3383 53.2228 63.9521 53.0669 63.5731 52.7698 63.1161 52.3311 62.5899 51.8949 62.0625 51.5608 61.6725 51.3364 61.4129 51.1074 61.1449 50.6792 60.7622 50.0478 60.2564 49.4218 59.7487 49.0221 59.432 48.8441 59.3149L48.8437 59.3149C48.6682 59.1919 48.2127 58.8592 47.4793 58.3193 46.7458 57.7745 46.3441 57.4857 46.2731 57.4515 45.888 57.3821 45.3475 57.343 44.6506 57.343Z" transform="matrix(1.00191 0 0 1 247 399.262)"/></g></svg>