<svg width="286" height="287" xmlns="http://www.w3.org/2000/svg" xmlns:xlink="http://www.w3.org/1999/xlink" xml:space="preserve" overflow="hidden"><defs><clipPath id="clip0"><rect x="2650" y="1819" width="286" height="287"/></clipPath></defs><g clip-path="url(#clip0)" transform="translate(-2650 -1819)"><path d="M2915.57 1819 2670.36 1819C2659.13 1819 2650 1828.29 2650 1839.69L2650 2085.31C2650 2096.71 2659.13 2106 2670.36 2106L2915.57 2106C2926.81 2106 2936 2096.71 2936 2085.31L2936 1839.69C2936 1828.29 2926.81 1819 2915.57 1819ZM2736.44 2065 2694.05 2065 2694.05 1928.03 2736.5 1928.03 2736.5 2065 2736.44 2065ZM2715.24 1860C2728.84 1860 2739.82 1871.02 2739.82 1884.66 2739.82 1898.31 2728.84 1909.33 2715.24 1909.33 2701.65 1909.33 2690.67 1898.31 2690.67 1884.66 2690.67 1871.02 2701.65 1860 2715.24 1860ZM2895.33 2065 2852.95 2065 2852.95 1998.38C2852.95 1982.49 2852.63 1962.05 2830.92 1962.05 2808.83 1962.05 2805.45 1979.35 2805.45 1997.22L2805.45 2065 2763.06 2065 2763.06 1928.03 2803.73 1928.03 2803.73 1946.74 2804.3 1946.74C2809.98 1935.98 2823.83 1924.64 2844.45 1924.64 2887.35 1924.64 2895.33 1953.02 2895.33 1989.92L2895.33 2065Z" fill-rule="evenodd"/></g></svg>