<svg width="84" height="83" xmlns="http://www.w3.org/2000/svg" xmlns:xlink="http://www.w3.org/1999/xlink" xml:space="preserve" overflow="hidden"><defs><clipPath id="clip0"><rect x="344" y="406" width="84" height="83"/></clipPath></defs><g clip-path="url(#clip0)" transform="translate(-344 -406)"><path d="M8.98382 5.98922C4.024 5.98922 0 10.0132 0 14.973L0 80.8544C0 85.8142 4.024 89.8382 8.98382 89.8382L74.8652 89.8382C79.825 89.8382 83.849 85.8142 83.849 80.8544L83.849 14.973C83.849 10.0132 79.825 5.98922 74.8652 5.98922L8.98382 5.98922ZM41.9245 17.9676C58.4647 17.9676 71.8706 31.376 71.8706 47.9137 71.8706 64.4515 58.4647 77.8598 41.9245 77.8598 25.3844 77.8598 11.9784 64.4515 11.9784 47.9137 11.9784 31.376 25.3844 17.9676 41.9245 17.9676ZM30.2057 28.8706C28.8581 28.8706 27.7653 29.9659 27.7653 31.3084 27.7653 32.6611 28.8605 33.7492 30.2057 33.7492 31.5557 33.7492 32.6459 32.6635 32.6485 31.3084 32.6485 29.9635 31.5557 28.8706 30.2057 28.8706ZM28.4338 36.3396 28.4338 61.1375 31.9822 61.1375 31.9822 36.3396 28.4338 36.3396ZM37.5174 36.3396 37.5174 61.0999 45.361 61.0999C47.5645 61.0999 49.0545 61.0402 49.838 60.9178 50.6192 60.7907 51.4749 60.5435 52.4107 60.1791 54.0104 59.5751 55.413 58.6868 56.6183 57.4989 57.8036 56.3509 58.7142 55.0186 59.3529 53.5037L59.3533 53.5037C59.9897 51.9914 60.314 50.4041 60.3114 48.7421 60.3114 46.4263 59.7301 44.283 58.5697 42.3189 57.4091 40.3574 55.8494 38.8652 53.8854 37.8545 51.9188 36.8414 49.254 36.3396 45.8776 36.3396L37.5174 36.3396ZM41.0735 39.4987 45.5055 39.4987C47.2124 39.4987 48.4455 39.5614 49.214 39.6935 49.9851 39.8208 50.7987 40.0905 51.6596 40.4923L51.6596 40.492C52.5129 40.8962 53.2765 41.4128 53.9402 42.0368 55.7396 43.7188 56.638 45.8922 56.638 48.555 56.638 51.2651 55.762 53.5062 54.0126 55.2829 53.4661 55.8294 52.8649 56.2863 52.2086 56.6582 51.5524 57.0325 50.7335 57.3368 49.7502 57.579 48.767 57.821 47.3899 57.943 45.618 57.943L41.0735 57.943 41.0735 39.4987Z" transform="matrix(1.0018 0 0 1 344 399.587)"/></g></svg>