<svg width="84" height="86" xmlns="http://www.w3.org/2000/svg" xmlns:xlink="http://www.w3.org/1999/xlink" xml:space="preserve" overflow="hidden"><defs><clipPath id="clip0"><rect x="666" y="413" width="84" height="86"/></clipPath></defs><g clip-path="url(#clip0)" transform="translate(-666 -413)"><path d="M8.99682 5.99788C4.02983 5.99788 0 10.0277 0 14.9947L0 80.9714C0 85.9384 4.02983 89.9682 8.99682 89.9682L74.9735 89.9682C79.9405 89.9682 83.9703 85.9384 83.9703 80.9714L83.9703 14.9947C83.9703 10.0277 79.9405 5.99788 74.9735 5.99788L8.99682 5.99788ZM11.9958 17.9936 71.9746 17.9936 71.9746 77.9724 11.9958 77.9724 11.9958 17.9936ZM30.2417 33.6014C25.2773 33.6014 22.2508 36.8304 22.2508 40.947 22.2508 45.0636 25.8829 46.8397 29.1924 48.8576 31.6544 50.3509 34.237 51.36 34.237 54.0238 34.237 56.6069 31.9368 58.4636 29.1924 58.4636 26.4883 58.4636 24.7126 57.8576 22.6542 56.6065L22.1695 59.7951C24.2684 60.7636 26.4072 61.2078 29.3534 61.2078 33.4702 61.2078 37.7887 58.6653 37.7887 53.6203 37.7887 49.7862 34.3984 48.0503 31.1294 46.113 28.5866 44.5794 25.8827 43.5302 25.8827 40.705 25.8827 38.6063 27.4163 36.3061 30.4434 36.3061 33.0667 36.3061 34.8831 36.7091 37.1837 38.0813L37.3853 34.8934C35.2462 34.0055 33.7126 33.6014 30.2417 33.6014ZM55.4991 33.6014C47.6693 33.6014 41.7366 39.6958 41.7366 47.4449 41.7366 56.2837 48.7995 61.1272 55.3782 61.1272 58.6878 61.1272 61.432 60.683 63.6115 59.5932L63.3695 56.5259C60.9075 57.8578 58.2838 58.3826 55.6605 58.3826 49.9294 58.3826 45.3689 53.5798 45.3689 47.2029 45.3689 40.4628 49.8486 36.3061 55.0952 36.3061 58.4047 36.3061 60.9478 36.8307 63.3695 38.1624L63.6115 35.1354C61.3917 34.0861 59.5754 33.6014 55.4991 33.6014Z" transform="matrix(1.00035 0 0 1 666 406.779)"/></g></svg>